<?xml version="1.0" encoding="UTF-8"?>
<svg version="1.1" xmlns="http://www.w3.org/2000/svg" width="1468" height="1068">
<path d="M0 0 C2.28373583 4.51812232 4.56225804 9.0388203 6.8359375 13.56201172 C7.61054162 15.1011475 8.38657862 16.639563 9.1640625 18.17724609 C10.27979833 20.38452451 11.3903961 22.59432154 12.5 24.8046875 C12.84998047 25.49432587 13.19996094 26.18396423 13.56054688 26.89450073 C16 31.77225659 16 31.77225659 16 34 C15.02281006 34.24008789 14.04562012 34.48017578 13.03881836 34.72753906 C-56.15837149 51.80046081 -123.03598885 75.47750105 -184 113 C-184.83724609 113.51224121 -185.67449219 114.02448242 -186.53710938 114.55224609 C-221.31672032 135.90922941 -253.45248235 160.86715173 -284.29348755 187.52772522 C-286.09140584 189.07885938 -287.89354004 190.62497532 -289.69677734 192.16992188 C-290.31805511 192.7022644 -290.93933289 193.23460693 -291.57943726 193.78308105 C-292.04822296 194.18466431 -292.51700867 194.58624756 -293 195 C-280.15125137 188.99995566 -267.44990158 182.74640088 -254.79501343 176.34884644 C-235.07521996 166.39548559 -215.24249811 156.84061156 -195 148 C-194.02108795 147.57065155 -194.02108795 147.57065155 -193.0223999 147.13262939 C-110.92168915 111.12575062 -25.59220755 86.40531256 136.55270386 68.14788818 C138.14120125 68.05189653 139.72953497 67.95314146 141.31765747 67.85113525 C159.8771636 66.6773707 178.47381278 66.75584909 197.0625 66.75 C198.35042828 66.74911629 198.35042828 66.74911629 199.66437531 66.74821472 C229.86773265 66.73362487 259.8849729 67.51069737 290 70 C290.89543518 70.07261047 291.79087036 70.14522095 292.71343994 70.22003174 C362.42579238 75.90690348 431.42176763 89.51662692 497.88598633 111.30725098 C499.92898385 111.97672845 501.97319965 112.64237095 504.01757812 113.30761719 C538.12006592 124.44409846 571.3495729 138.16881892 604 153 C604.63353394 153.2875415 605.26706787 153.57508301 605.9197998 153.87133789 C634.32549596 166.79040967 662.13697471 180.96106141 690 195 C681.49619358 186.47027006 672.7692749 178.4211034 663.22607422 171.07128906 C659.28050141 168.02852604 655.46161995 164.87721709 651.6875 161.625 C638.77637232 150.57247234 624.98065334 140.64420531 611 131 C610.1330249 130.39671875 610.1330249 130.39671875 609.24853516 129.78125 C540.60818479 82.15735616 462.17377639 54.9531799 382 34 C383.38097659 29.5251617 385.14918679 25.46797526 387.2578125 21.2890625 C387.56572723 20.67606293 387.87364197 20.06306335 388.19088745 19.43148804 C389.16515063 17.49406342 390.14496917 15.5595124 391.125 13.625 C391.7907353 12.30357212 392.45610353 10.98195924 393.12109375 9.66015625 C394.74315823 6.43795475 396.37021374 3.21830407 398 0 C408.74271251 0.55857027 419.297261 1.69506908 429.9375 3.25 C430.70067535 3.36048676 431.46385071 3.47097351 432.25015259 3.58480835 C445.62556436 5.53235625 458.84015465 7.89267453 472 11 C473.22251465 11.28746094 474.4450293 11.57492187 475.70458984 11.87109375 C543.96878874 28.03122035 609.23742825 55.51304152 669.42529297 91.47314453 C671.70969802 92.82784481 674.00635858 94.15452945 676.31640625 95.46484375 C729.2040774 125.59219073 729.2040774 125.59219073 742 147.3125 C742.65790527 148.42044922 743.31581055 149.52839844 743.99365234 150.66992188 C750.64136503 161.94720594 756.88373235 173.42746661 763 185 C763.53334961 185.99966797 764.06669922 186.99933594 764.61621094 188.02929688 C773.35397057 204.41325217 781.39024121 221.06525925 789 238 C789.34349487 238.76346741 789.68698975 239.52693481 790.04089355 240.3135376 C799.88054487 262.20530295 809.34008365 284.17348343 817.74755859 306.65722656 C818.89614335 309.722806 820.06292733 312.78054319 821.23828125 315.8359375 C854.41546994 402.48916821 879.21576302 492.45621421 932.51953125 854.08984375 C932.56924576 854.80909531 932.61896027 855.52834686 932.67018127 856.26939392 C933.40573077 867.45902563 933.40573077 867.45902563 930.69140625 871.078125 C929.66299164 872.14957862 928.61904556 873.20627544 927.5625 874.25 C926.4446339 875.4029883 925.32745098 876.55663933 924.2109375 877.7109375 C923.65889648 878.27264648 923.10685547 878.83435547 922.53808594 879.41308594 C920.5126455 881.50282607 918.60105415 883.6828441 916.6875 885.875 C908.66103581 894.82421463 900.13147984 903.57889608 890.94140625 911.33984375 C888.46555003 913.45702462 886.08338732 915.66781829 883.6875 917.875 C878.2850248 922.79577302 872.69762419 927.4270049 867 932 C865.86801214 932.92389449 864.73652513 933.8484029 863.60546875 934.7734375 C830.25304269 961.92958346 793.35391384 983.74719871 755 1003 C754.14696289 1003.43119141 753.29392578 1003.86238281 752.41503906 1004.30664062 C725.39916688 1017.87815707 696.95349372 1028.17068863 668.18475342 1037.30273438 C665.91611708 1038.02677129 663.65156117 1038.76268853 661.38720703 1039.5 C650.27277413 1043.09713147 639.0900976 1046.19981328 627.75 1049 C626.88937958 1049.21377289 626.02875916 1049.42754578 625.14205933 1049.64779663 C608.85757035 1053.67985938 592.54091497 1057.16999095 576 1060 C575.02568024 1060.16792053 575.02568024 1060.16792053 574.03167725 1060.3392334 C557.43513418 1063.1902044 540.84290612 1065.37963083 524.0625 1066.8125 C523.32374634 1066.87593597 522.58499268 1066.93937195 521.82385254 1067.00473022 C518.39959565 1067.29318717 514.97870715 1067.55072577 511.54882812 1067.76733398 C509.36620023 1067.91043005 507.18529638 1068.09810811 505.01367188 1068.35961914 C501.41768388 1068.67221112 499.081686 1068.86165744 496.18286133 1066.55249023 C494.37230374 1064.40256963 492.87795008 1062.18753223 491.375 1059.8125 C490.17709217 1058.05680804 488.97646858 1056.30296664 487.7734375 1054.55078125 C487.15823242 1053.63506348 486.54302734 1052.7193457 485.90917969 1051.77587891 C482.7760338 1047.22039697 479.38285018 1042.87135065 476 1038.5 C470.20905527 1030.94425579 464.51231816 1023.3261486 458.90014648 1015.63671875 C456.27932179 1012.054302 453.63506164 1008.50484977 450.87109375 1005.03125 C450.39397949 1004.42925781 449.91686523 1003.82726562 449.42529297 1003.20703125 C448.15852831 1001.62028483 446.87861237 1000.04406213 445.59765625 998.46875 C445.07042969 997.6540625 444.54320312 996.839375 444 996 C444.33 995.01 444.66 994.02 445 993 C447.39135742 991.85595703 447.39135742 991.85595703 450.60546875 990.7578125 C452.3989978 990.12879028 452.3989978 990.12879028 454.22875977 989.48706055 C454.87241486 989.26609711 455.51606995 989.04513367 456.17922974 988.81747437 C525.68373405 964.85153294 591.73319745 926.95681515 648.3203125 880.2109375 C650.1191952 878.72672816 651.9266597 877.25286411 653.7421875 875.7890625 C659.40156357 871.21987785 664.85623772 866.49050513 670.19921875 861.5546875 C672.38360577 859.56223407 674.58859558 857.61019633 676.8203125 855.671875 C681.03127877 851.99823655 685.12313876 848.20962415 689.1875 844.375 C690.28843994 843.33666016 690.28843994 843.33666016 691.41162109 842.27734375 C700.6341618 833.54547025 709.86928083 824.7771898 718 815 C718.89581404 813.92576516 719.79164868 812.8515475 720.6875 811.77734375 C721.450625 810.86082031 722.21375 809.94429687 723 809 C722.08605469 809.65742187 721.17210937 810.31484375 720.23046875 810.9921875 C701.62857363 824.28778044 682.61531616 837.23794153 663 849 C662.16065918 849.5038623 661.32131836 850.00772461 660.45654297 850.52685547 C624.68507666 871.89903106 587.67648779 890.51869294 549 906 C547.83388184 906.46857422 546.66776367 906.93714844 545.46630859 907.41992188 C467.21439935 938.61008217 383.74258988 956.14920957 183 968 C181.93413666 967.9870993 181.93413666 967.9870993 180.84674072 967.97393799 C93.91530837 966.86199908 7.48530563 955.4512042 -319.20703125 812.99609375 C-321.11556987 811.63208922 -323.04813202 810.30124532 -325 809 C-312.77405253 823.38617127 -299.69456065 837.78127628 -285.27734375 850.00390625 C-282.67923552 852.28115035 -280.17248747 854.64283907 -277.66015625 857.01391602 C-271.92190576 862.42761447 -266.14705457 867.68962902 -259.9765625 872.61328125 C-257.69728022 874.44089473 -255.44831712 876.29018778 -253.2109375 878.16796875 C-242.78789068 886.89756297 -232.05045923 895.08200634 -221 903 C-220.18096191 903.58813477 -219.36192383 904.17626953 -218.51806641 904.78222656 C-166.02786263 942.34703528 -107.92270445 971.81521508 -47 993 C-47 997.42607069 -47.39917304 998.00443941 -50.0078125 1001.31640625 C-50.6575 1002.15300781 -51.3071875 1002.98960937 -51.9765625 1003.8515625 C-52.68554688 1004.74617187 -53.39453125 1005.64078125 -54.125 1006.5625 C-55.60812503 1008.46899938 -57.08987059 1010.37657261 -58.5703125 1012.28515625 C-59.31829102 1013.24566895 -60.06626953 1014.20618164 -60.83691406 1015.19580078 C-63.96150636 1019.24648556 -66.98514933 1023.36735234 -70 1027.5 C-75.69857857 1035.28775592 -81.51970134 1042.97596259 -87.40820312 1050.62109375 C-88.03533203 1051.43835937 -88.66246094 1052.255625 -89.30859375 1053.09765625 C-89.93008301 1053.89486084 -90.55157227 1054.69206543 -91.19189453 1055.51342773 C-93.06455326 1057.99669487 -93.06455326 1057.99669487 -94.63232422 1060.83227539 C-98.62466336 1067.58519858 -98.62466336 1067.58519858 -102.45678711 1068.7409668 C-105.46395085 1068.87489773 -108.26012346 1068.66163831 -111.25 1068.3125 C-112.35424316 1068.22307129 -113.45848633 1068.13364258 -114.59619141 1068.04150391 C-118.07089628 1067.74470926 -121.53292053 1067.37453933 -125 1067 C-127.04395926 1066.82063215 -129.08822751 1066.64474491 -131.1328125 1066.47265625 C-165.84406448 1063.30583229 -200.24353613 1056.52871186 -234 1048 C-235.16547363 1047.70657715 -236.33094727 1047.4131543 -237.53173828 1047.11083984 C-320.99254764 1025.71881908 -404.13965665 987.06769755 -470 931 C-470.83289551 930.29230469 -470.83289551 930.29230469 -471.68261719 929.5703125 C-475.8040817 926.06495466 -479.91106783 922.54325114 -484 919 C-484.6386499 918.44747559 -485.2772998 917.89495117 -485.93530273 917.32568359 C-490.60579311 913.2650289 -495.1766568 909.11204905 -499.6875 904.875 C-500.37448975 904.22974365 -501.06147949 903.5844873 -501.76928711 902.91967773 C-519.84674015 885.86543735 -519.84674015 885.86543735 -526.4296875 877.77734375 C-527.96824476 875.92491568 -527.96824476 875.92491568 -530.0078125 874.44140625 C-532.80490443 872.06662036 -534.82551861 869.90962754 -535.17321777 866.10420227 C-535.12997342 863.76320249 -534.98034778 861.4511213 -534.79296875 859.1171875 C-534.73513718 858.2376944 -534.6773056 857.35820129 -534.61772156 856.45205688 C-534.42789822 853.63331922 -534.21466985 850.81694341 -534 848 C-533.87469452 846.20515592 -533.75049696 844.41023412 -533.62744141 842.61523438 C-533.22414337 836.86562475 -532.7743925 831.12017014 -532.3125 825.375 C-532.22763336 824.31697174 -532.14276672 823.25894348 -532.05532837 822.16885376 C-527.0338132 760.0964062 -519.40800409 698.39701782 -509 637 C-508.8287561 635.98609192 -508.65751221 634.97218384 -508.4810791 633.92755127 C-491.61543896 534.27037527 -466.58465431 435.90320352 -410 282 C-409.55914062 280.92830566 -409.11828125 279.85661133 -408.6640625 278.75244141 C-394.41791059 244.20657673 -378.92064133 209.80281293 -361 177 C-360.47293457 176.03352539 -359.94586914 175.06705078 -359.40283203 174.07128906 C-355.9000774 167.6733903 -352.33270379 161.31647212 -348.70214844 154.99023438 C-347.12692904 152.22298148 -345.59728475 149.43465934 -344.0703125 146.640625 C-337.67381658 135.31675383 -330.42790229 128.49096113 -319.47558594 121.57568359 C-316.91959505 119.94882312 -314.41521366 118.26061582 -311.9140625 116.55078125 C-238.70961464 66.6489808 -156.47692881 30.51434088 -11.67578125 0.83984375 C-10.96471725 0.75424698 -10.25365326 0.66865021 -9.52104187 0.58045959 C-6.31044938 0.20930281 -3.23907971 0 0 0 Z M-44 471 C-44.99515625 471.26683594 -45.9903125 471.53367187 -47.015625 471.80859375 C-70.32760152 478.82088615 -90.2994365 493.84391181 -105 513 C-105.67933594 513.86367188 -106.35867188 514.72734375 -107.05859375 515.6171875 C-130.27750553 546.12312618 -137.27478415 585.36992051 -132.47412109 622.74609375 C-128.27804242 652.09571508 -115.59450831 677.00434922 -96 699 C-95.40574219 699.66773438 -94.81148438 700.33546875 -94.19921875 701.0234375 C-80.72292248 715.26885241 -63.55821823 724.37781743 -45 730 C-43.93007813 730.34160156 -42.86015625 730.68320312 -41.7578125 731.03515625 C-15.59176652 738.04974464 12.91080199 732.29011078 36 719 C65.04299866 701.25582445 85.00853264 671.93965384 93.75 639.375 C93.94875732 638.63612549 94.14751465 637.89725098 94.35229492 637.13598633 C97.39301267 625.19077496 98.4117899 613.35619321 98.375 601.0625 C98.37368576 599.98242172 98.37368576 599.98242172 98.37234497 598.88052368 C98.22237391 561.3114763 84.54769369 526.55059853 58.125 499.625 C37.97720022 479.82877628 11.22359769 467.52259031 -17.25 467.6875 C-18.751073 467.69378418 -18.751073 467.69378418 -20.2824707 467.70019531 C-28.50869783 467.82464455 -36.04372448 468.80155545 -44 471 Z M386 472 C385.31357422 472.20898926 384.62714844 472.41797852 383.91992188 472.63330078 C368.84918508 477.40093908 355.6973325 485.3872989 344 496 C343.49259277 496.45826172 342.98518555 496.91652344 342.46240234 497.38867188 C323.69947569 514.56094021 310.30770375 537.32103491 304 562 C303.80680176 562.7410498 303.61360352 563.48209961 303.41455078 564.24560547 C293.94643206 602.34222357 300.3001535 643.14185419 320.1953125 676.7578125 C324.20628733 683.32672646 328.66157907 689.24577519 333.96875 694.84375 C335.6698799 696.64956482 337.17268747 698.47932771 338.6875 700.4375 C347.05726155 710.2137504 358.7178126 717.11656815 370 723 C370.85335937 723.47050781 371.70671875 723.94101562 372.5859375 724.42578125 C394.81861158 735.75252215 423.50182259 736.57724772 447 729 C447.97235596 728.68651611 447.97235596 728.68651611 448.96435547 728.36669922 C465.25194926 722.88825686 478.46445562 713.53977039 491 702 C491.68578125 701.38511719 492.3715625 700.77023437 493.078125 700.13671875 C503.30427004 690.50789527 510.67828785 678.41507348 517 666 C517.32097656 665.37287109 517.64195312 664.74574219 517.97265625 664.09960938 C535.65731275 628.76729356 535.64045109 587.86497222 523.69140625 550.8828125 C518.30336056 535.04569553 509.76381926 520.74839844 499 508 C498.175 507.02289063 497.35 506.04578125 496.5 505.0390625 C481.67744345 488.13208393 460.90742562 475.3501425 439 470 C438.12085938 469.77570313 437.24171875 469.55140625 436.3359375 469.3203125 C419.81054804 465.84378964 402.06472728 467.09717748 386 472 Z " fill="#FFFFFF" transform="translate(535,0)"/>
</svg>
