<?xml version="1.0" standalone="no"?>
<!DOCTYPE svg PUBLIC "-//W3C//DTD SVG 20010904//EN"
 "http://www.w3.org/TR/2001/REC-SVG-20010904/DTD/svg10.dtd">
<svg version="1.0" xmlns="http://www.w3.org/2000/svg"
 width="4000.000000pt" height="2664.000000pt" viewBox="0 0 4000.000000 2664.000000"
 preserveAspectRatio="xMidYMid meet">

<g transform="translate(0.000000,2664.000000) scale(0.100000,-0.100000)"
fill="#000000" stroke="none">
<path d="M0 26603 c0 -35 1 -36 15 -17 19 25 19 54 0 54 -11 0 -15 -11 -15
-37z"/>
<path d="M645 26583 c-49 -30 -110 -70 -135 -88 -25 -18 -56 -36 -70 -40 -40
-11 -101 -55 -160 -116 -30 -30 -74 -66 -97 -79 -46 -25 -55 -49 -23 -57 26
-7 26 -30 0 -38 -28 -9 -15 -25 21 -25 16 0 29 -3 29 -7 0 -5 19 -9 43 -9 82
-3 142 -13 146 -25 2 -6 12 -19 22 -27 11 -9 19 -22 19 -28 0 -16 40 -40 88
-53 46 -13 69 -32 83 -70 16 -40 3 -71 -31 -78 -17 -3 -30 -9 -30 -13 0 -5
-15 -12 -32 -15 -18 -4 -38 -12 -45 -17 -7 -5 -17 -7 -23 -3 -6 4 -17 1 -25
-5 -10 -8 -15 -9 -15 -2 0 6 -6 9 -13 6 -13 -5 -67 47 -67 64 0 19 -38 42 -68
42 -17 0 -34 5 -37 10 -3 6 -16 10 -29 10 -52 0 -117 114 -94 165 8 17 6 28
-7 48 -10 17 -13 27 -6 32 16 9 13 25 -3 25 -8 0 -31 -9 -50 -21 l-36 -21 0
-81 c0 -45 4 -76 8 -70 12 18 52 -12 53 -40 1 -17 2 -18 6 -4 6 22 12 22 34
-5 24 -27 24 -29 -4 -20 -12 5 -29 8 -37 8 -16 -1 -27 -36 -11 -36 6 0 26 -14
46 -31 19 -17 35 -28 35 -24 0 3 7 0 15 -9 8 -8 15 -17 15 -20 0 -10 -39 -6
-45 4 -12 19 -35 -10 -35 -42 0 -22 -4 -29 -17 -27 -61 6 -63 4 -63 -71 0 -38
3 -70 8 -70 4 0 31 -22 59 -48 38 -34 50 -51 44 -61 -5 -7 -14 -10 -20 -7 -6
4 -11 2 -11 -4 0 -12 -24 -9 -64 6 -14 5 -16 -5 -16 -75 0 -66 3 -81 15 -81 9
0 20 -10 25 -22 7 -18 4 -27 -16 -43 l-24 -21 0 -12627 0 -12627 20000 0
20000 0 0 11110 c0 10290 -1 11110 -16 11110 -9 0 -23 8 -31 18 -8 9 -12 11
-8 5 3 -7 2 -21 -4 -30 -7 -13 -5 -21 7 -30 10 -7 12 -13 6 -13 -6 0 -17 7
-24 15 -7 8 -21 15 -31 15 -17 0 -24 11 -20 33 1 5 -4 7 -11 4 -7 -2 -23 0
-36 4 -16 6 -21 6 -16 -2 8 -14 -60 -3 -91 14 -32 18 -88 37 -112 37 -12 0
-24 4 -27 9 -3 5 -16 9 -30 9 -13 0 -43 7 -67 15 -24 9 -136 44 -249 77 -113
34 -290 89 -395 122 -104 33 -219 69 -255 80 -36 11 -112 35 -170 54 -58 18
-193 61 -300 95 -107 33 -269 85 -360 114 -91 30 -253 81 -360 115 -107 34
-276 88 -375 120 -99 31 -247 79 -330 105 -82 26 -195 62 -250 80 -108 36
-364 112 -485 144 -644 173 -969 274 -2365 736 -489 161 -998 328 -1130 370
-284 92 -654 216 -1155 389 -201 69 -491 165 -645 212 -154 47 -442 139 -640
204 -492 162 -871 284 -1385 445 -428 134 -888 285 -1470 483 -162 55 -437
146 -610 202 -173 55 -361 116 -417 135 l-103 35 -11199 0 -11200 0 -54 -82
c-66 -99 -144 -230 -188 -315 l-32 -61 25 -31 c15 -17 31 -52 37 -79 8 -37 24
-246 26 -327 0 -15 -41 -18 -79 -5 -31 10 -34 15 -40 63 -17 153 -18 252 -2
297 18 52 19 60 7 60 -5 0 -19 -21 -32 -47 -12 -27 -38 -70 -59 -98 -20 -27
-49 -73 -64 -102 -16 -28 -42 -64 -59 -80 l-30 -28 24 45 c12 25 51 90 86 146
35 55 63 106 63 112 0 6 11 19 25 28 14 9 25 21 25 27 0 5 19 35 42 65 23 30
63 91 88 136 26 44 70 119 98 165 29 46 52 90 52 98 0 11 -214 13 -1249 13
l-1249 0 -7 -30 c-8 -37 -19 -44 -44 -28 -17 11 -24 9 -46 -12 -15 -14 -33
-40 -40 -57 -15 -35 -29 -42 -39 -18 -3 9 -19 15 -41 15 -27 0 -35 4 -35 18 0
11 9 27 19 36 10 9 21 30 23 47 l5 29 -81 -1 c-80 0 -82 -1 -171 -56z m415
-88 c5 -14 17 -28 25 -31 8 -4 15 -15 15 -25 0 -15 5 -17 31 -12 20 4 34 1 39
-7 10 -16 1 -51 -14 -49 -6 1 -20 1 -31 0 -18 -1 -18 -2 3 -17 12 -8 22 -23
22 -33 0 -22 87 -114 101 -106 5 4 12 -1 15 -9 3 -9 10 -13 15 -10 5 3 9 -4 9
-15 0 -15 6 -21 22 -21 20 0 18 -13 -3 -16 -5 -1 -12 -2 -15 -3 -3 0 3 -13 13
-28 22 -32 20 -60 -5 -67 -13 -4 -18 -17 -18 -46 -1 -35 2 -40 28 -46 16 -3
27 -8 24 -11 -3 -3 -1 -14 5 -24 8 -15 5 -24 -15 -44 -28 -28 -46 -32 -46 -10
0 8 -6 15 -12 15 -9 0 -8 4 2 10 12 8 11 10 -6 10 -17 0 -21 5 -19 25 3 19 -1
25 -15 25 -10 0 -26 3 -36 7 -13 5 -11 -1 8 -22 25 -26 25 -30 10 -41 -14 -10
-19 -7 -34 24 -10 21 -17 45 -18 55 0 11 -9 21 -20 24 -24 6 -26 26 -5 47 20
20 30 72 16 80 -14 9 -14 76 0 76 5 0 7 5 4 10 -3 6 -15 10 -26 10 -11 0 -18
4 -14 9 3 5 1 12 -4 15 -5 4 -12 2 -16 -4 -3 -5 -17 -7 -30 -4 -26 7 -42 -11
-26 -30 6 -7 14 -41 17 -75 5 -46 11 -61 23 -61 14 -1 14 -2 0 -10 -9 -5 -20
-21 -23 -35 -3 -13 -15 -29 -26 -35 -11 -6 -20 -17 -20 -25 0 -24 -35 -17 -64
12 -18 17 -24 32 -20 42 4 9 7 32 6 51 -2 28 4 40 33 65 l35 32 -25 34 c-14
18 -24 40 -23 49 1 8 0 20 -4 25 -3 6 -9 27 -13 47 -6 34 -5 39 18 49 35 16
39 31 18 72 -17 33 -17 35 3 55 30 31 74 29 86 -3z m962 -70 c10 -11 17 -30
18 -42 0 -12 5 -25 10 -28 19 -12 10 -25 -17 -25 -44 0 -78 22 -75 48 2 17 -2
22 -17 22 -12 0 -21 5 -21 10 0 6 -7 10 -15 10 -8 0 -15 5 -15 11 0 6 8 8 18
5 9 -3 28 1 41 8 29 16 49 11 73 -19z m-212 15 c0 -5 -9 -10 -20 -10 -11 0
-20 5 -20 10 0 6 9 10 20 10 11 0 20 -4 20 -10z m-1146 -63 c30 6 67 -28 64
-59 -3 -40 25 -89 63 -109 47 -23 60 -66 30 -90 -12 -10 -21 -23 -21 -31 0 -8
-3 -9 -8 -3 -8 12 -27 13 -37 3 -7 -7 -17 0 -55 34 -10 9 -21 14 -24 11 -3 -4
-9 8 -12 26 -4 18 -13 35 -20 38 -8 3 -14 16 -14 29 0 14 -7 27 -15 30 -9 4
-21 16 -27 27 -9 17 -7 24 11 38 14 11 18 20 11 24 -8 5 -5 13 7 25 10 9 19
14 21 10 1 -4 13 -5 26 -3z m575 -14 c24 -20 19 -33 -9 -26 -11 3 -20 14 -20
24 0 23 4 24 29 2z m5511 -53 c0 -5 -2 -10 -4 -10 -3 0 -8 5 -11 10 -3 6 -1
10 4 10 6 0 11 -4 11 -10z m-6161 -169 c8 -15 7 -20 -6 -25 -21 -8 -38 8 -30
28 8 22 24 20 36 -3z m251 -61 c0 -5 -7 -7 -15 -4 -8 4 -12 10 -9 15 6 11 24
2 24 -11z m3687 -94 c7 -22 20 -94 27 -160 27 -232 28 -243 12 -258 -18 -19
-74 -11 -80 11 -8 26 -26 267 -26 350 0 78 10 104 39 99 8 -2 20 -21 28 -42z
m2399 8 c-4 -14 -9 -24 -12 -21 -3 2 -2 17 2 31 3 15 9 25 11 22 3 -3 2 -17
-1 -32z m-6165 8 c32 -3 36 -7 31 -25 l-5 -22 22 23 c12 12 23 22 25 22 1 0 2
-10 1 -22 -1 -15 -8 -22 -19 -20 -9 2 -16 -1 -16 -5 0 -20 -57 -10 -82 15 -32
30 -38 59 -10 46 9 -4 33 -9 53 -12z m4924 -89 c11 -31 27 -256 22 -315 -5
-62 -33 -112 -68 -123 -27 -9 -46 9 -31 28 9 10 10 55 6 153 -5 147 5 225 33
256 20 23 29 23 38 1z m5755 -43 c8 -5 12 -12 8 -15 -9 -9 -48 4 -48 16 0 12
21 11 40 -1z m-841 -40 c-12 -22 -25 -38 -27 -35 -5 4 37 75 44 75 3 0 -5 -18
-17 -40z m-9281 6 c-7 -8 -17 -12 -22 -9 -4 3 -2 9 5 14 22 13 31 11 17 -5z
m-1038 -57 c0 -18 -4 -21 -32 -23 -7 -1 -16 -10 -20 -21 -5 -18 -6 -18 -7 4
-1 24 38 73 51 65 5 -3 8 -14 8 -25z m11299 -54 c0 -5 -4 -3 -9 5 -5 8 -9 22
-9 30 0 16 17 -16 18 -35z m215 -96 c-87 -177 -94 -188 -94 -161 0 13 -9 35
-20 49 -24 30 -28 72 -6 54 11 -9 18 -8 30 4 9 9 16 22 16 28 0 7 -7 3 -15 -7
-13 -17 -15 -18 -21 -2 -8 22 -1 29 31 29 20 0 25 4 25 23 0 13 4 24 8 24 4 0
8 9 9 21 2 26 21 49 40 49 8 0 22 8 31 17 36 35 23 -15 -34 -128z m-11617 85
c-6 -7 -37 25 -37 39 0 6 9 1 21 -12 12 -12 19 -24 16 -27z m6641 24 c26 -56
24 -158 -4 -158 -17 0 -18 -17 -1 -23 7 -3 5 -6 -5 -6 -11 -1 -18 -9 -18 -22
0 -12 -5 -19 -12 -17 -17 6 -23 200 -8 228 14 26 34 25 48 -2z m4952 2 c0 -5
-5 -10 -11 -10 -5 0 -7 5 -4 10 3 6 8 10 11 10 2 0 4 -4 4 -10z m-1320 -41
c15 -28 5 -23 -15 7 -9 15 -12 23 -6 20 6 -4 16 -16 21 -27z m1124 -11 c-4 -6
-10 -5 -15 3 -14 22 -10 33 6 19 8 -7 12 -17 9 -22z m-11414 2 c0 -5 -4 -10
-10 -10 -5 0 -10 5 -10 10 0 6 5 10 10 10 6 0 10 -4 10 -10z m2886 -16 c-3 -8
-1 -14 3 -14 5 0 11 6 14 13 2 6 8 9 12 5 9 -8 -133 -218 -189 -278 -12 -14
-39 -55 -60 -92 -33 -60 -40 -67 -67 -66 -16 1 -27 3 -24 6 3 3 -1 12 -7 21
-10 13 -10 14 2 4 19 -17 35 -16 21 1 -9 11 -5 20 19 44 16 17 30 33 30 37 0
3 11 21 25 39 14 18 25 36 25 40 0 7 10 20 38 51 6 7 12 16 12 18 0 10 82 127
109 156 16 17 26 33 22 37 -3 4 0 4 7 0 7 -5 11 -14 8 -22z m8550 -3 c-3 -5 8
-11 24 -15 28 -5 29 -7 18 -26 -13 -21 -13 -21 -35 5 -25 28 -29 45 -12 45 5
0 8 -4 5 -9z m-3623 -59 c-3 -12 -10 -22 -15 -22 -5 0 -7 3 -5 8 2 4 7 16 11
26 9 25 17 16 9 -12z m4909 -19 c6 -3 4 -9 -3 -14 -12 -7 -12 -9 0 -9 11 0 11
-3 1 -15 -9 -10 -9 -15 -1 -15 20 0 50 -37 39 -48 -8 -8 0 -10 23 -10 18 1 35
-4 37 -10 2 -7 10 -5 22 5 10 9 17 20 14 25 -3 4 1 8 9 8 7 0 13 -8 11 -17 -4
-32 -16 -63 -24 -63 -5 0 -6 -8 -4 -18 3 -9 -4 -39 -16 -65 l-21 -48 -18 23
c-29 37 -72 108 -66 108 4 0 -15 26 -41 58 -59 72 -73 100 -54 112 13 8 75 4
92 -7z m197 -32 c-7 -20 -15 -28 -25 -24 -18 7 -18 18 2 37 24 25 34 19 23
-13z m-5104 -1 c-4 -12 -1 -27 5 -35 8 -10 9 -15 2 -15 -6 0 -14 5 -17 11 -7
11 2 59 11 59 3 0 2 -9 -1 -20z m6310 -212 c-4 -24 -11 -48 -16 -54 -5 -6 -6
-13 -3 -16 3 -3 -2 -22 -10 -42 -11 -25 -19 -34 -30 -30 -19 7 -19 6 -5 41 7
15 13 39 15 52 2 14 10 29 19 33 8 5 15 20 15 33 0 14 5 25 11 25 7 0 8 -14 4
-42z m-107 -17 c38 -35 40 -49 10 -60 -18 -7 -28 -3 -45 16 -23 24 -30 53 -16
66 11 11 17 8 51 -22z m-7416 -3 c-7 -7 -12 -8 -12 -2 0 14 12 26 19 19 2 -3
-1 -11 -7 -17z m-12 -31 c0 -2 -8 -19 -17 -38 -16 -31 -18 -32 -21 -11 -4 23
13 52 29 52 5 0 9 -2 9 -3z m-3888 -88 c14 -28 17 -67 19 -214 l2 -180 -54 -3
c-80 -3 -85 3 -70 80 7 35 15 120 18 191 3 70 10 127 14 127 5 0 9 6 9 14 0
15 18 26 35 22 6 -1 18 -18 27 -37z m7578 -60 c0 -22 -4 -38 -8 -35 -8 5 -4
76 4 76 2 0 4 -18 4 -41z m-2489 -52 c-10 -9 -11 -8 -5 6 3 10 9 15 12 12 3
-3 0 -11 -7 -18z m-39 -84 c-5 -10 -17 -35 -27 -56 -10 -21 -20 -36 -22 -33
-5 5 45 106 53 106 2 0 1 -8 -4 -17z m10318 -70 c0 -7 -3 -12 -7 -12 -19 3
-27 -2 -15 -10 10 -6 11 -13 1 -34 -12 -26 -29 -37 -29 -18 0 5 -8 12 -17 16
-15 5 -16 4 -5 -6 6 -7 12 -18 12 -23 0 -6 -4 -5 -9 3 -7 11 -13 10 -35 -4
-14 -10 -26 -21 -26 -26 0 -5 -5 -9 -11 -9 -14 0 -2 52 14 62 8 5 6 8 -5 8 -9
0 -20 -4 -23 -10 -3 -5 -11 -10 -17 -10 -7 0 -7 5 1 14 10 12 83 31 104 27 4
0 7 4 7 9 0 6 -5 10 -11 10 -5 0 -8 4 -4 10 3 5 11 7 18 4 7 -2 19 5 27 16 14
20 29 11 30 -17z m-1470 23 c0 -2 -9 -6 -20 -9 -11 -3 -20 -1 -20 4 0 5 9 9
20 9 11 0 20 -2 20 -4z m1173 -30 c4 4 9 0 12 -9 6 -13 10 -13 33 -1 26 13 27
13 30 -11 2 -14 9 -25 16 -25 23 0 25 -46 4 -59 -10 -6 -23 -9 -28 -6 -5 3
-11 1 -14 -4 -3 -5 4 -11 16 -14 12 -4 19 -9 16 -12 -19 -19 -90 65 -118 140
-11 28 -10 28 8 12 10 -9 22 -14 25 -11z m-1095 -16 c-14 -21 -38 -35 -38 -20
0 11 29 40 41 40 5 0 4 -9 -3 -20z m1212 -5 c0 -8 -4 -15 -10 -15 -5 0 -10 7
-10 15 0 8 5 15 10 15 6 0 10 -7 10 -15z m1237 -60 c13 -14 18 -14 37 -1 26
17 76 10 76 -11 0 -10 5 -11 19 -4 10 6 36 8 57 5 22 -3 51 -5 67 -5 15 0 27
-3 27 -7 0 -25 -56 -195 -86 -260 l-35 -78 -45 -2 -44 -2 -29 63 c-15 35 -36
73 -46 84 -23 27 -85 168 -85 193 0 15 7 20 28 20 21 0 24 2 12 10 -12 8 -10
10 8 10 13 0 30 -7 39 -15z m-1147 -30 c0 -8 -7 -15 -15 -15 -8 0 -15 7 -15
15 0 8 7 15 15 15 8 0 15 -7 15 -15z m37 -10 c-9 -7 -14 -15 -10 -18 3 -4 1
-7 -5 -7 -15 0 -15 5 0 29 7 11 16 17 22 14 5 -3 2 -11 -7 -18z m-123 9 c21
-8 21 -24 0 -24 -8 0 -12 -4 -9 -10 3 -5 1 -10 -4 -10 -6 0 -11 11 -11 25 0
27 1 28 24 19z m-3875 -64 c-10 -7 -10 -14 -1 -35 13 -28 8 -65 -9 -65 -10 0
-12 62 -3 110 6 27 8 30 17 15 6 -12 5 -20 -4 -25z m-7244 -29 c-3 -15 -12
-41 -20 -57 -8 -16 -15 -37 -15 -46 0 -10 -4 -18 -10 -18 -5 0 -10 4 -10 8 0
11 37 119 45 132 11 18 15 10 10 -19z m15915 -6 c0 -2 -10 -9 -22 -15 -22 -11
-22 -10 -4 4 21 17 26 19 26 11z m-7403 -47 c-3 -7 -5 -2 -5 12 0 14 2 19 5
13 2 -7 2 -19 0 -25z m6506 -142 c12 -3 25 0 29 7 6 9 12 9 27 0 15 -10 20
-10 24 0 3 9 13 7 35 -6 19 -11 40 -15 55 -11 24 5 46 -10 32 -24 -3 -3 -9 -1
-13 5 -5 8 -12 7 -27 -3 -18 -13 -17 -14 11 -12 16 1 35 6 42 11 8 6 12 5 12
-2 0 -7 8 -11 18 -9 12 2 16 -3 15 -17 -1 -11 0 -14 3 -7 7 15 36 16 51 1 15
-15 80 -21 88 -8 5 7 15 5 31 -5 13 -9 29 -16 36 -15 7 0 4 4 -7 9 -17 7 -14
9 15 10 19 2 41 2 48 1 8 -1 22 5 32 14 15 13 23 14 39 5 17 -8 21 -8 21 3 0
7 11 24 25 37 l26 24 -7 -44 c-9 -55 -6 -142 5 -150 4 -3 8 -22 8 -44 1 -30
-3 -39 -18 -43 -25 -7 -24 -20 1 -28 27 -8 50 -55 50 -100 0 -49 -28 -75 -82
-75 -52 -1 -72 -15 -76 -55 -2 -16 -10 -34 -18 -38 -8 -4 -14 -17 -14 -27 0
-14 -7 -20 -21 -20 -15 0 -19 -4 -15 -16 5 -13 2 -15 -14 -11 -11 3 -20 1 -20
-4 0 -12 49 -31 61 -24 5 4 6 -1 3 -9 -3 -8 -12 -12 -20 -9 -10 4 -14 -2 -14
-20 0 -41 -18 -41 -23 0 l-4 38 -1 -43 c-1 -28 -7 -45 -17 -49 -19 -7 -21 -5
-29 27 -6 21 -5 22 4 8 16 -26 30 -22 30 7 0 22 -4 25 -34 25 -31 0 -53 19
-48 42 1 4 -12 5 -30 1 -26 -5 -30 -4 -25 10 4 10 2 17 -3 17 -6 0 -10 9 -10
21 0 11 -4 17 -10 14 -6 -4 -7 1 -3 11 5 14 3 16 -11 11 -14 -6 -16 -3 -11 16
6 22 6 22 -10 2 -15 -18 -15 -17 -9 15 4 19 11 43 16 53 11 22 20 62 11 54 -3
-4 -18 0 -34 8 -15 8 -39 15 -52 15 -54 0 -111 80 -180 255 -49 126 -51 134
-36 163 10 18 15 21 17 10 2 -9 13 -18 25 -22z m342 -56 c3 -5 2 -10 -4 -10
-5 0 -13 5 -16 10 -3 6 -2 10 4 10 5 0 13 -4 16 -10z m1713 -78 c110 -103 -20
-386 -222 -481 -138 -65 -129 -14 40 244 29 44 67 118 84 164 17 46 33 88 36
92 10 16 32 9 62 -19z m-21744 -99 c10 -66 7 -433 -4 -433 -6 0 -26 6 -44 14
l-33 14 -6 93 c-8 106 5 265 23 301 32 60 55 64 64 11z m22641 -393 c4 -18 -3
-70 -19 -137 -45 -185 -94 -383 -124 -503 -16 -63 -33 -133 -36 -155 -12 -69
-36 -123 -59 -129 -12 -3 -24 -2 -27 2 -13 18 -54 34 -58 23 -4 -13 -22 -5
-22 10 0 6 4 8 9 4 17 -10 21 12 6 25 -19 16 -19 39 1 61 9 10 18 38 20 63 2
25 9 57 14 71 5 14 6 25 2 25 -14 0 -9 45 6 56 12 8 12 15 3 33 -8 15 -9 26
-3 34 6 7 13 34 18 62 4 27 13 55 21 63 7 7 11 18 7 23 -3 5 2 12 10 15 10 4
16 18 16 38 0 18 5 37 12 44 6 6 11 26 10 43 -1 44 14 69 41 69 18 0 19 2 7
10 -13 8 -12 10 4 10 14 0 17 5 12 25 -4 14 -2 25 4 25 5 0 10 7 10 15 0 8 11
22 25 31 14 9 25 22 25 29 0 8 9 17 20 20 11 3 20 11 20 16 0 22 19 6 25 -21z
m-2624 -92 c0 -18 2 -43 5 -55 4 -25 -22 -57 -39 -46 -8 5 -6 9 7 11 13 3 15
6 6 12 -9 5 -9 13 -1 27 6 11 9 35 6 52 -2 17 1 31 6 31 5 0 9 -15 10 -32z
m-46 -18 c-3 -5 -10 -10 -16 -10 -5 0 -9 5 -9 10 0 6 7 10 16 10 8 0 12 -4 9
-10z m-14725 -20 c0 -14 -5 -18 -17 -13 -16 5 -16 4 0 -8 18 -14 17 -16 -4
-44 -44 -59 -85 -97 -123 -116 -43 -21 -102 -25 -126 -9 -13 9 -13 12 3 24 9
7 17 17 17 21 0 14 44 46 57 41 15 -6 63 13 63 25 0 4 8 10 19 14 10 3 18 13
17 22 0 10 8 19 19 21 17 3 18 1 5 -8 -13 -10 -13 -11 0 -7 8 2 14 10 13 18
-2 8 7 19 20 25 33 17 37 16 37 -6z m14759 -101 c-16 -10 -23 -4 -14 10 3 6
11 8 17 5 6 -4 5 -9 -3 -15z m131 -4 c0 -8 -7 -15 -15 -15 -13 0 -14 3 -3 15
16 18 18 18 18 0z m-15765 -5 c3 -5 1 -10 -4 -10 -6 0 -11 5 -11 10 0 6 2 10
4 10 3 0 8 -4 11 -10z m-2398 -49 l28 -8 -30 -15 c-16 -8 -38 -13 -47 -11 -13
3 -16 0 -12 -11 4 -9 1 -16 -6 -16 -10 0 -63 -52 -118 -113 -38 -42 -194 -187
-202 -187 -5 0 -10 -5 -10 -11 0 -5 5 -7 10 -4 15 9 12 -4 -5 -21 -8 -9 -20
-12 -26 -9 -6 4 -13 -2 -16 -14 -3 -13 -12 -21 -22 -19 -8 2 -28 -10 -42 -27
l-27 -30 -27 27 c-21 21 -33 26 -56 21 -24 -4 -29 -2 -30 13 0 11 -3 14 -6 7
-8 -21 -23 -15 -23 8 0 18 -2 19 -15 9 -9 -7 -13 -15 -10 -18 3 -4 -14 -12
-37 -19 -24 -7 -44 -9 -46 -4 -3 10 -47 2 -79 -14 -13 -7 -38 -11 -56 -8 -18
2 -57 5 -87 7 -149 10 -212 16 -220 21 -7 4 -95 16 -137 18 -7 0 -13 7 -13 15
0 12 -3 12 -16 1 -15 -12 -16 -10 -10 17 7 30 6 31 -21 26 -25 -5 -27 -4 -14
12 8 10 17 13 20 7 11 -16 77 21 73 42 -2 9 -8 15 -13 12 -12 -8 -11 6 1 25 9
13 11 13 19 1 7 -11 10 -8 13 13 2 21 13 34 45 51 23 12 39 26 35 30 -4 4 4 2
17 -5 15 -8 21 -8 17 -1 -4 6 -2 11 3 11 6 0 11 -4 11 -10 0 -5 4 -10 10 -10
5 0 9 6 7 13 -1 7 11 13 28 15 17 2 35 8 42 14 7 5 17 7 23 3 5 -3 10 -2 10 3
0 4 37 16 83 27 45 10 91 22 102 28 10 5 37 11 60 13 22 1 58 5 80 9 22 4 47
8 55 10 8 1 22 5 30 8 8 3 31 6 50 6 82 1 340 42 340 54 0 10 222 0 267 -12z
m18040 -3 c-3 -8 -6 -5 -6 6 -1 11 2 17 5 13 3 -3 4 -12 1 -19z m123 12 c0 -5
-5 -10 -11 -10 -5 0 -7 5 -4 10 3 6 8 10 11 10 2 0 4 -4 4 -10z m-12 -45 c2
-27 -15 -34 -24 -10 -4 8 -14 15 -23 16 -13 1 14 13 39 18 3 1 7 -10 8 -24z
m-16938 -131 c-8 -8 -23 -20 -34 -26 -19 -10 -20 -10 -7 5 7 10 10 17 5 18 -7
1 18 11 45 18 2 1 -2 -6 -9 -15z m4480 -122 c0 -13 -40 -52 -53 -52 -7 1 -5 6
6 14 9 7 17 18 17 24 0 8 9 15 28 21 1 1 2 -3 2 -7z m-8310 -239 c0 -46 -3
-64 -10 -57 -10 10 -3 124 6 124 2 0 4 -30 4 -67z m3409 -129 c-15 -18 -51
-15 -57 5 -3 9 0 12 10 9 7 -3 23 1 33 8 23 17 33 1 14 -22z m-3399 16 c0 -5
-7 -7 -15 -4 -8 4 -15 8 -15 10 0 2 7 4 15 4 8 0 15 -4 15 -10z m3296 -23 c22
1 22 1 3 -22 -24 -26 -89 -34 -89 -10 0 8 7 15 16 15 11 0 14 5 10 16 -5 12
-1 14 17 8 12 -5 32 -8 43 -7z m-169 -33 c-3 -3 -12 -4 -19 -1 -8 3 -5 6 6 6
11 1 17 -2 13 -5z m2903 -111 c0 -5 -9 -19 -20 -33 -11 -14 -20 -30 -20 -37 0
-6 -13 -25 -30 -41 -16 -16 -27 -32 -24 -34 2 -3 -6 -13 -18 -24 -13 -12 -18
-13 -13 -4 8 13 6 13 -8 1 -9 -7 -15 -17 -12 -21 3 -4 -6 -10 -20 -12 -21 -4
-23 -2 -15 13 7 12 6 20 -2 25 -7 4 -10 4 -6 0 8 -10 -22 -46 -39 -46 -7 0
-13 -4 -13 -9 0 -5 -10 -7 -22 -4 -18 4 -20 2 -8 -6 8 -5 12 -13 9 -16 -9 -8
-40 6 -34 15 3 4 -5 10 -16 13 -12 3 -18 10 -14 17 4 6 13 9 21 6 8 -3 14 -1
14 4 0 6 6 10 13 10 7 0 30 23 50 50 21 28 44 50 52 50 9 0 12 6 9 15 -5 11 1
15 25 15 33 0 42 15 14 24 -10 3 -1 4 19 3 22 -2 39 2 42 9 3 7 14 10 25 7 12
-3 21 -1 21 6 0 6 5 11 10 11 6 0 10 -3 10 -7z m2750 -38 c0 -8 -4 -15 -10
-15 -5 0 -10 7 -10 15 0 8 5 15 10 15 6 0 10 -7 10 -15z m-4315 -25 c-3 -5
-11 -10 -16 -10 -6 0 -7 5 -4 10 3 6 11 10 16 10 6 0 7 -4 4 -10z m22750 -90
c4 -6 -6 -10 -22 -9 -25 0 -26 1 -8 9 11 5 21 9 22 9 1 1 5 -3 8 -9z m-187 -9
c2 5 16 9 30 9 21 0 24 -2 12 -10 -13 -8 -12 -10 3 -10 9 0 17 5 17 10 0 6 15
9 33 9 24 -1 26 -3 9 -6 -18 -4 -21 -7 -12 -18 14 -16 5 -35 -16 -35 -8 0 -14
-9 -14 -19 0 -11 -5 -23 -12 -27 -7 -5 -8 -3 -3 7 5 8 -1 6 -12 -4 -16 -14
-22 -15 -26 -5 -4 9 -6 8 -6 -3 -1 -9 -8 -20 -17 -23 -12 -5 -15 -2 -10 11 5
15 4 15 -9 -1 -18 -23 -19 -33 -5 -41 6 -3 10 -1 10 4 0 6 5 11 10 11 6 0 9
-5 8 -11 -2 -6 3 -14 11 -17 10 -3 12 0 8 12 -4 10 -1 16 8 16 12 0 12 -5 3
-25 -10 -22 -13 -24 -27 -11 -9 8 -21 12 -27 8 -15 -10 -25 -42 -14 -42 5 0 6
-8 3 -17 -6 -15 -8 -14 -16 5 -14 30 -35 28 -30 -2 3 -13 -1 -27 -8 -31 -7 -5
-10 -4 -5 3 7 11 -31 28 -41 18 -4 -3 0 -6 8 -6 10 -1 9 -4 -4 -11 -9 -6 -15
-14 -12 -20 4 -5 1 -9 -4 -9 -6 0 -11 6 -12 13 0 6 -4 3 -8 -8 -5 -12 -4 -23
3 -27 6 -5 1 -8 -13 -8 -15 0 -21 -5 -18 -13 8 -22 -20 -50 -44 -44 -15 4 -27
0 -35 -11 -12 -16 -13 -15 -14 3 -1 18 -2 18 -10 3 -6 -9 -18 -14 -29 -11 -10
3 -22 0 -25 -6 -4 -5 -14 -7 -23 -4 -12 5 -15 2 -10 -9 3 -10 0 -19 -9 -22 -8
-3 -13 -2 -10 2 2 4 1 14 -5 22 -7 13 -9 12 -9 -2 0 -19 -23 -28 -79 -31 -44
-1 -50 -10 -24 -39 17 -19 5 -26 -14 -7 -13 13 -33 4 -33 -17 0 -8 -5 -14 -11
-14 -13 0 -1 42 15 53 6 4 -2 5 -18 1 -19 -5 -31 -2 -37 7 -7 11 -9 11 -9 -2
0 -9 -7 -22 -14 -29 -11 -8 -12 -18 -5 -37 8 -21 6 -24 -8 -21 -12 2 -18 13
-18 30 1 15 -3 24 -8 21 -5 -3 -7 -17 -4 -31 7 -37 -2 -56 -19 -41 -10 8 -17
7 -29 -5 -18 -18 -29 -21 -20 -6 3 6 -1 10 -9 10 -8 0 -18 -9 -21 -20 -4 -13
-18 -23 -36 -27 -16 -3 -29 -12 -29 -20 0 -10 -6 -13 -15 -9 -10 4 -19 -3 -26
-18 -14 -29 -76 -42 -83 -16 -2 9 -4 6 -5 -7 -1 -18 5 -23 27 -24 l27 -1 -25
-8 c-16 -5 -33 -2 -48 7 -19 12 -23 12 -28 -2 -4 -8 -1 -22 6 -30 10 -12 9
-15 -9 -15 -12 0 -21 -6 -21 -15 0 -8 -6 -12 -13 -9 -17 6 -41 -21 -32 -37 5
-7 0 -7 -16 1 -17 10 -24 10 -27 1 -2 -6 -10 -11 -18 -11 -9 0 -14 -11 -14
-30 0 -20 -5 -30 -15 -30 -9 0 -23 -6 -31 -12 -35 -29 -64 -64 -64 -75 0 -7
-9 -13 -20 -13 -14 0 -20 -7 -20 -21 0 -19 -2 -20 -16 -8 -15 13 -17 11 -12
-21 4 -24 0 -39 -13 -54 -11 -11 -19 -16 -19 -11 0 4 -11 -5 -25 -21 -14 -16
-23 -21 -19 -11 3 9 1 17 -4 17 -6 0 -12 -12 -14 -27 -2 -16 -8 -27 -16 -25
-7 1 -15 -5 -18 -13 -4 -8 -17 -15 -31 -15 -13 0 -21 -4 -18 -10 3 -5 0 -10
-7 -10 -7 0 -28 -14 -45 -31 -18 -16 -33 -25 -33 -19 0 6 -12 -2 -27 -17 -16
-15 -40 -34 -55 -40 -16 -7 -28 -17 -28 -23 0 -6 -4 -9 -9 -5 -5 3 -16 -4 -24
-15 -7 -11 -17 -17 -20 -13 -4 3 -7 1 -7 -5 0 -7 -12 -12 -28 -12 -18 0 -35
-10 -52 -30 -14 -16 -30 -30 -36 -30 -6 0 -17 -7 -24 -15 -7 -8 -16 -13 -20
-10 -4 3 -13 -2 -20 -10 -7 -9 -21 -13 -30 -10 -11 3 -20 -1 -24 -11 -3 -9
-12 -14 -20 -11 -7 3 -18 1 -24 -5 -8 -8 -16 -7 -27 2 -13 11 -15 10 -9 -6 6
-16 5 -17 -7 -6 -15 14 -73 17 -64 2 3 -5 -10 0 -29 13 -26 16 -34 27 -30 42
4 15 3 17 -5 6 -5 -9 -29 -16 -58 -17 -49 -2 -79 -10 -101 -27 -7 -5 -28 -11
-46 -13 -28 -2 -80 -21 -117 -41 -4 -2 -9 5 -12 16 -3 14 7 34 34 65 21 24 39
46 39 49 0 3 29 36 65 73 36 38 65 72 65 76 0 4 27 35 60 68 33 33 60 65 60
71 0 6 16 27 35 46 19 19 35 39 35 44 0 6 19 28 43 50 23 23 41 47 39 55 -2 8
5 14 17 14 11 0 41 19 67 43 89 80 97 87 105 87 5 0 9 5 9 10 0 14 51 59 68
60 7 0 17 11 22 25 5 14 15 25 22 25 7 0 19 9 26 20 7 12 17 18 22 15 13 -8
41 20 37 37 -2 7 -2 9 1 5 2 -4 9 -4 15 1 7 5 29 15 49 21 20 7 42 18 48 26 7
8 16 12 21 9 5 -3 12 2 15 10 3 9 15 16 26 16 10 0 17 4 14 8 -3 5 13 16 34
26 22 10 46 23 53 29 21 20 74 47 93 47 9 0 14 3 11 7 -6 6 58 44 121 72 12 6
22 16 22 22 0 6 9 9 20 6 11 -3 20 -1 20 5 0 5 4 7 9 3 5 -3 12 -1 16 5 3 5
14 10 24 10 10 0 24 7 31 15 7 8 17 12 22 9 5 -3 16 2 23 12 11 15 14 16 15 4
0 -12 3 -11 11 3 5 9 16 17 24 17 8 0 18 7 22 15 5 8 24 16 43 19 41 5 101 25
115 37 5 5 21 9 37 9 15 0 31 6 35 14 7 14 87 31 183 41 19 2 70 15 113 29 43
14 84 26 92 26 8 0 15 5 15 11 0 8 19 10 66 5 39 -4 63 -3 60 2 -3 6 13 10 36
10 22 1 45 5 50 10 5 5 27 6 51 1 24 -4 43 -4 45 2z m132 -21 c0 -5 -4 -10
-10 -10 -5 0 -10 5 -10 10 0 6 5 10 10 10 6 0 10 -4 10 -10z m-24865 -50 c-3
-5 -11 -10 -16 -10 -6 0 -7 5 -4 10 3 6 11 10 16 10 6 0 7 -4 4 -10z m-2980
-104 c14 19 14 18 15 -3 0 -21 -10 -28 -32 -24 -5 0 -8 -8 -8 -19 0 -15 -7
-20 -26 -20 -20 0 -25 4 -20 16 3 9 6 20 6 25 0 6 5 7 10 4 9 -6 14 7 11 30
-1 6 6 1 14 -9 15 -20 15 -20 30 0z m8266 -123 c-8 -15 -10 -15 -11 -2 0 17
10 32 18 25 2 -3 -1 -13 -7 -23z m-7511 -19 c0 -19 -26 -18 -34 2 -3 8 -2 12
4 9 6 -3 10 -1 10 5 0 6 5 8 10 5 6 -3 10 -13 10 -21z m26820 16 c0 -5 -5 -10
-11 -10 -5 0 -7 5 -4 10 3 6 8 10 11 10 2 0 4 -4 4 -10z m-5 -30 c3 -5 2 -10
-4 -10 -5 0 -13 5 -16 10 -3 6 -2 10 4 10 5 0 13 -4 16 -10z m-22622 -24 c4
-10 1 -13 -9 -9 -7 3 -14 -1 -14 -8 0 -7 -3 -9 -6 -6 -4 4 -1 13 6 22 15 19
17 19 23 1z m-123 -106 c-44 -41 -52 -38 -10 5 18 19 36 33 38 30 3 -2 -10
-18 -28 -35z m21120 -100 c18 -6 20 -8 7 -9 -11 -1 -30 -10 -44 -21 -14 -11
-30 -20 -34 -20 -18 0 -8 27 14 39 12 6 14 9 4 6 -10 -3 -15 -1 -12 5 7 11 29
11 65 0z m-117 -72 c-4 -21 -11 -28 -29 -28 -14 0 -27 -7 -30 -15 -4 -8 -12
-15 -19 -15 -8 0 -15 -10 -17 -22 -2 -12 -9 -23 -16 -26 -12 -4 -12 0 -1 19 6
13 -9 2 -34 -26 -26 -27 -47 -53 -47 -57 0 -3 -13 -11 -30 -17 -16 -5 -30 -14
-30 -19 0 -5 -11 -22 -25 -38 -14 -16 -25 -23 -25 -16 0 6 -5 12 -11 12 -5 0
-8 -4 -4 -9 3 -5 -5 -13 -17 -17 -27 -8 -57 -44 -51 -60 5 -13 -32 -56 -40
-47 -3 2 -10 -5 -17 -16 -6 -12 -20 -21 -30 -21 -11 0 -19 -5 -17 -11 2 -11
-15 -23 -45 -33 -10 -3 -18 -15 -18 -26 0 -11 -4 -20 -10 -20 -5 0 -10 -7 -10
-16 0 -8 -4 -13 -9 -10 -12 8 -44 -31 -36 -43 4 -8 -1 -8 -18 -2 -22 8 -23 7
-19 -21 4 -30 4 -30 -29 -23 -42 9 -62 25 -30 25 12 0 19 4 16 10 -3 6 -2 10
4 10 5 0 19 16 31 35 12 19 26 35 31 35 17 0 59 44 59 62 0 12 7 18 24 18 13
0 26 7 30 15 3 8 12 15 21 15 18 0 19 5 5 31 -13 24 1 55 29 64 11 3 22 14 25
23 6 18 127 112 144 112 6 0 24 11 40 25 19 16 33 21 37 15 9 -15 25 -2 19 15
-8 20 21 47 51 49 14 0 25 6 25 12 0 15 59 56 70 49 6 -3 10 -2 10 2 0 6 40
31 47 29 1 -1 -1 -13 -4 -28z m-2438 -48 c3 -5 1 -10 -4 -10 -6 0 -11 5 -11
10 0 6 2 10 4 10 3 0 8 -4 11 -10z m65 -34 c0 -24 -11 -72 -65 -285 -40 -158
-71 -308 -120 -575 -47 -258 -98 -430 -141 -477 -14 -14 -22 -28 -18 -32 3 -3
3 -11 -1 -17 -5 -8 -12 -7 -23 3 -14 11 -24 12 -57 1 -22 -7 -35 -13 -30 -14
6 0 2 -5 -8 -11 -14 -8 -22 -8 -30 0 -6 6 -7 11 -1 11 5 0 10 34 10 78 1 56 9
104 31 177 29 92 70 237 89 310 4 17 8 39 9 50 0 11 4 26 8 33 17 26 65 187
57 190 -12 5 0 40 16 46 8 3 14 14 14 24 0 15 -6 18 -30 14 -18 -3 -30 0 -30
7 0 6 3 10 8 10 20 -3 32 2 32 16 0 8 6 15 13 15 8 0 14 7 14 15 0 8 -6 15
-14 15 -7 0 -13 5 -13 10 0 6 7 10 15 10 21 0 19 16 -2 25 -17 7 -16 8 2 15
11 5 14 9 8 9 -16 1 -18 81 -2 81 5 0 7 -5 3 -11 -4 -7 -1 -10 7 -7 8 3 15 14
17 26 2 12 8 22 14 22 5 0 7 7 4 16 -4 10 1 22 12 30 20 14 47 89 37 104 -3 6
-1 10 4 10 6 0 20 8 30 18 42 37 55 46 73 47 10 1 21 5 25 8 15 15 33 6 33
-17z m3250 -6 c0 -5 -4 -10 -10 -10 -5 0 -10 5 -10 10 0 6 5 10 10 10 6 0 10
-4 10 -10z m-123 -122 c-3 -8 -6 -5 -6 6 -1 11 2 17 5 13 3 -3 4 -12 1 -19z
m-5660 -35 c-3 -10 -5 -4 -5 12 0 17 2 24 5 18 2 -7 2 -21 0 -30z m-11617 -38
c0 7 32 10 88 8 126 -5 147 -9 149 -33 1 -11 -2 -18 -7 -15 -4 3 -6 -3 -3 -14
7 -29 -28 -45 -97 -44 -87 1 -136 6 -142 17 -6 8 -8 7 -8 -1 0 -22 -18 -14
-22 9 -2 12 -14 28 -26 34 -27 13 -13 29 17 19 13 -4 20 1 25 17 5 19 8 20 16
8 5 -8 10 -10 10 -5z m11630 -45 c0 -5 -4 -10 -10 -10 -5 0 -10 5 -10 10 0 6
5 10 10 10 6 0 10 -4 10 -10z m-30 -46 c0 -2 -7 -4 -15 -4 -8 0 -15 4 -15 10
0 5 7 7 15 4 8 -4 15 -8 15 -10z m-11150 -64 c0 -5 -7 -10 -15 -10 -8 0 -15 5
-15 10 0 6 7 10 15 10 8 0 15 -4 15 -10z m950 -34 c41 -9 54 -12 83 -24 16 -7
32 -12 37 -12 15 0 22 -53 8 -61 -18 -12 -46 -11 -50 2 -2 7 -12 7 -31 0 -22
-9 -29 -8 -33 4 -3 7 -18 17 -34 20 -15 3 -36 15 -46 26 -9 10 -29 19 -45 19
-23 0 -26 3 -22 21 5 19 11 20 57 15 28 -3 62 -7 76 -10z m12460 -44 c0 -5 -7
-9 -15 -9 -8 0 -12 4 -9 9 3 4 9 8 15 8 5 0 9 -4 9 -8z m-12673 -34 c-3 -8 -6
-5 -6 6 -1 11 2 17 5 13 3 -3 4 -12 1 -19z m20 -10 c-3 -8 -6 -5 -6 6 -1 11 2
17 5 13 3 -3 4 -12 1 -19z m14593 -73 c0 -8 -4 -15 -10 -15 -5 0 -10 7 -10 15
0 8 5 15 10 15 6 0 10 -7 10 -15z m29 -25 c-9 -5 -20 -21 -23 -35 -7 -28 -41
-67 -50 -57 -3 3 -6 1 -6 -5 0 -6 -21 -24 -47 -39 -27 -15 -51 -32 -54 -37 -4
-6 -15 -6 -25 -2 -11 5 -23 7 -27 6 -5 -1 -6 3 -2 9 3 5 0 10 -7 10 -23 0 38
51 65 54 31 3 49 16 23 16 -16 0 -16 2 1 30 11 19 25 30 40 30 12 0 25 4 28
10 3 5 19 7 35 3 19 -3 30 -1 30 6 0 6 8 11 18 11 15 -1 16 -1 1 -10z m-2073
-195 c-3 -8 -1 -15 3 -15 5 0 12 6 14 13 4 9 6 9 6 0 1 -7 -8 -17 -19 -23 -12
-6 -20 -7 -20 -1 0 14 11 41 17 41 3 0 3 -7 -1 -15z m-23965 -50 c-1 -15 -24
-12 -29 3 -3 9 2 13 12 10 10 -1 17 -7 17 -13z m25807 3 c-6 -18 -25 -21 -25
-3 0 8 7 15 15 15 7 0 12 -5 10 -12z m-290 -247 c7 -21 7 -32 -1 -41 -9 -10
-7 -12 11 -7 33 8 27 -15 -13 -50 -31 -27 -50 -64 -26 -49 4 3 5 -12 1 -34 -5
-28 -4 -40 5 -40 22 0 81 83 70 100 -11 17 15 58 46 74 56 28 85 20 67 -19 -8
-19 -7 -27 6 -40 28 -29 20 -43 -14 -25 -13 7 -21 7 -26 -2 -4 -6 -2 -14 4
-16 7 -2 10 -8 6 -13 -3 -5 -1 -9 5 -9 5 0 16 -12 23 -27 20 -40 44 -51 65
-30 15 14 16 21 5 37 -19 31 -15 73 8 88 12 7 18 17 15 22 -4 6 1 7 11 3 11
-4 15 -3 11 4 -9 15 20 43 44 43 50 0 194 -75 206 -108 4 -9 14 -23 24 -29 21
-16 31 -73 12 -73 -7 0 -13 -4 -13 -10 0 -5 -7 -10 -15 -10 -12 0 -14 -8 -9
-39 7 -41 -18 -145 -37 -157 -6 -3 -21 -2 -32 4 -54 25 -96 42 -105 42 -5 0
-15 7 -22 15 -7 8 -20 15 -29 15 -8 0 -37 15 -64 33 -44 29 -48 35 -43 65 5
34 -4 41 -24 18 -6 -8 -18 -12 -27 -9 -8 3 -18 1 -22 -5 -8 -13 -75 2 -137 30
-22 10 -47 18 -55 19 -10 0 -10 2 -2 6 10 3 10 10 1 26 -13 26 -11 143 4 172
14 26 39 55 49 55 4 0 12 -13 17 -29z m-4945 -238 c-7 -2 -21 -2 -30 0 -10 3
-4 5 12 5 17 0 24 -2 18 -5z m5001 -162 c21 10 34 10 60 1 18 -7 48 -12 67
-12 19 0 50 -9 69 -20 19 -11 50 -27 68 -36 18 -8 35 -21 39 -29 3 -8 12 -15
19 -15 20 0 30 -30 13 -41 -19 -11 1 -44 27 -44 13 0 20 -8 22 -25 2 -14 8
-30 14 -37 6 -8 6 -19 -1 -32 -6 -11 -13 -46 -15 -77 -2 -31 -10 -60 -17 -65
-10 -6 -10 -16 -1 -46 9 -30 9 -55 -1 -109 -6 -38 -11 -89 -10 -114 1 -25 2
-54 1 -65 0 -11 -1 -33 -2 -50 0 -16 -4 -33 -9 -36 -4 -3 -3 -32 3 -65 15 -87
17 -123 5 -128 -6 -3 -6 -8 2 -13 6 -5 11 -15 11 -23 -2 -33 3 -51 12 -45 6 4
8 -12 5 -40 -3 -25 1 -63 10 -88 8 -23 14 -69 13 -102 0 -33 5 -73 11 -88 6
-16 11 -39 11 -53 0 -13 5 -24 10 -24 5 0 9 -3 9 -7 -3 -21 2 -33 14 -30 7 1
12 -9 13 -23 0 -14 3 -30 6 -36 4 -6 8 -32 9 -60 2 -50 20 -97 41 -111 18 -11
48 -71 48 -93 0 -10 5 -22 10 -25 6 -3 10 -15 10 -25 0 -10 6 -25 13 -32 26
-27 46 -67 63 -124 9 -32 20 -63 24 -69 18 -23 50 -87 50 -99 0 -8 15 -32 33
-55 17 -22 45 -62 61 -88 17 -26 36 -52 43 -56 7 -4 19 -22 28 -40 8 -18 26
-45 40 -61 14 -16 25 -35 25 -42 0 -7 11 -21 25 -32 14 -11 25 -27 25 -35 0
-8 4 -17 8 -19 5 -1 35 -37 68 -78 32 -41 68 -84 79 -96 11 -12 29 -34 40 -49
37 -53 79 -88 142 -116 34 -16 64 -33 67 -38 9 -14 -21 -40 -52 -47 -74 -15
-138 -41 -249 -100 -67 -35 -124 -64 -127 -64 -3 0 -3 7 0 15 4 8 2 15 -3 15
-5 0 -16 13 -26 29 -9 16 -42 43 -72 60 -69 39 -158 120 -253 231 -41 47 -86
99 -100 115 -15 17 -35 44 -45 60 -11 17 -32 43 -48 59 -26 25 -34 44 -30 69
0 4 -4 7 -10 7 -19 0 -57 47 -64 80 -4 18 -11 27 -18 23 -6 -4 -8 -1 -5 9 3 8
-2 19 -11 25 -9 6 -26 31 -36 57 -11 25 -24 46 -31 46 -6 0 -14 8 -18 18 -5
17 -26 52 -36 62 -13 13 -50 90 -44 90 4 0 -2 8 -12 18 -33 30 -55 70 -42 78
7 5 6 11 -7 20 -10 7 -17 25 -17 39 0 15 -8 30 -20 36 -10 5 -16 15 -12 21 4
5 3 13 -2 17 -13 9 -54 86 -54 101 0 6 -9 25 -21 41 -11 16 -18 33 -15 37 3 5
-2 22 -11 38 -18 33 -35 90 -34 117 0 10 -5 15 -11 11 -7 -5 -9 4 -6 25 2 17
1 31 -3 31 -12 0 -19 44 -9 54 15 15 12 23 -11 29 -18 5 -21 11 -16 39 2 18 0
42 -6 53 -6 11 -13 31 -14 45 -1 14 -3 32 -4 40 -1 8 -8 20 -15 25 -13 10 -35
143 -38 225 -1 25 -5 50 -8 55 -10 16 -3 84 10 97 20 20 15 86 -9 111 l-20 22
21 17 c11 9 16 19 11 22 -16 11 -9 55 10 61 12 4 19 16 19 33 0 21 -7 30 -30
41 -23 10 -29 18 -25 32 4 12 1 21 -9 25 -9 3 -15 16 -15 27 1 12 -3 51 -9 86
-12 68 -9 86 15 77 17 -7 47 19 38 33 -3 6 -13 7 -23 4 -16 -6 -16 -6 1 11 9
9 17 24 17 32 0 8 7 28 15 44 9 18 11 31 5 35 -6 3 -10 15 -10 25 0 10 -6 20
-12 22 -10 4 -10 11 1 34 8 16 16 44 17 63 2 18 5 35 7 37 2 2 19 -1 37 -6 22
-6 36 -6 40 0 3 5 18 7 33 4 18 -3 34 1 44 11 11 12 18 13 23 5 5 -8 14 -8 34
1z m-6014 -425 c0 -3 -4 -8 -10 -11 -5 -3 -10 -1 -10 4 0 6 5 11 10 11 6 0 10
-2 10 -4z m52 -315 c-5 -3 -15 -30 -22 -58 -8 -30 -19 -53 -27 -53 -19 0 -16
13 20 86 20 40 33 59 35 49 2 -10 0 -20 -6 -24z m265 -207 c-3 -3 -12 -4 -19
-1 -8 3 -5 6 6 6 11 1 17 -2 13 -5z m-13078 -270 c10 -9 -12 -16 -69 -21 -73
-7 -61 -23 18 -23 78 0 199 -27 269 -61 34 -16 69 -29 77 -29 13 0 72 -29 101
-49 6 -4 30 -9 54 -10 24 -2 60 -9 81 -16 21 -7 42 -10 46 -7 4 4 4 1 0 -5 -5
-9 1 -13 22 -13 16 0 41 -9 54 -20 14 -10 28 -16 32 -13 3 3 6 1 6 -5 0 -7 7
-12 15 -12 9 0 18 -7 21 -15 4 -8 13 -15 21 -15 13 0 75 -27 113 -49 8 -5 26
-14 40 -20 14 -6 32 -15 40 -20 8 -6 27 -12 41 -15 16 -4 29 -14 32 -28 4 -12
9 -19 12 -16 4 3 18 -5 31 -17 14 -13 32 -21 40 -18 10 4 12 0 7 -13 -5 -13
-3 -16 10 -11 8 3 21 -1 28 -9 19 -23 49 -37 49 -24 0 22 -82 92 -101 87 -12
-3 -20 2 -25 15 -4 13 -12 18 -25 15 -14 -4 -21 3 -29 29 -7 19 -15 34 -19 34
-13 0 -106 94 -103 104 2 5 -6 6 -18 3 -12 -3 -20 0 -20 8 0 7 -15 18 -32 26
-18 7 -46 23 -63 37 -46 37 -162 102 -211 119 -24 8 -44 19 -44 23 0 5 -8 11
-17 13 -15 4 -15 5 2 6 11 0 29 -6 39 -14 10 -8 23 -12 29 -8 6 4 7 1 2 -7 -5
-9 -2 -10 13 -6 14 5 53 -8 118 -39 53 -25 98 -45 99 -45 2 0 41 -23 87 -52
46 -28 99 -61 118 -72 93 -55 399 -287 570 -431 348 -294 484 -418 1070 -980
666 -638 1444 -1445 1804 -1870 70 -82 137 -161 150 -175 114 -127 279 -341
282 -367 1 -8 22 -33 47 -56 24 -23 57 -63 73 -87 16 -25 46 -67 66 -95 42
-55 45 -65 22 -65 -8 0 -12 5 -9 10 3 6 1 10 -5 10 -6 0 -8 5 -4 12 5 8 2 9
-10 5 -10 -4 -15 -3 -11 3 3 6 -1 10 -9 10 -10 0 -13 6 -9 18 3 9 3 14 -1 11
-4 -4 -21 8 -39 25 -25 24 -31 36 -25 53 4 14 2 23 -7 27 -10 3 -12 0 -8 -12
5 -13 3 -14 -6 -6 -7 6 -19 29 -26 50 -8 22 -14 33 -15 27 0 -7 -5 -13 -11
-13 -6 0 -8 7 -5 16 6 15 0 24 -36 65 -10 10 -18 21 -18 23 0 12 -135 144
-142 140 -6 -4 -5 3 1 15 8 14 8 20 1 19 -5 -2 -16 8 -23 22 -7 14 -19 25 -27
25 -8 0 -16 6 -16 13 -1 6 -2 17 -3 23 0 6 -8 9 -16 5 -9 -3 -15 0 -15 9 0 10
-6 12 -17 8 -16 -6 -16 -5 -4 10 12 15 11 17 -4 17 -9 0 -19 9 -22 21 -3 12
-11 18 -19 15 -8 -3 -14 1 -14 10 0 8 -10 25 -23 37 -12 12 -22 29 -22 37 0 9
-7 14 -19 12 -13 -3 -17 1 -13 12 3 8 -7 31 -24 52 -16 20 -29 31 -29 25 0 -7
-5 -9 -10 -6 -6 4 -8 10 -5 15 3 4 -11 25 -30 46 -35 38 -51 39 -17 1 12 -15
13 -18 2 -12 -19 11 -46 47 -42 58 1 4 -10 7 -26 8 -24 0 -25 1 -7 9 14 6 16
9 5 10 -8 2 -18 2 -22 1 -5 0 -8 4 -8 9 0 6 -7 10 -15 10 -9 0 -18 8 -21 18
-11 34 -27 62 -36 62 -5 0 -6 -4 -3 -10 3 -6 -1 -7 -10 -4 -9 4 -14 12 -12 18
2 6 -5 18 -15 27 -10 10 -17 23 -16 30 2 7 -4 14 -12 15 -8 0 -26 2 -40 3 -14
2 -19 5 -12 8 6 2 12 9 12 14 0 6 -4 7 -10 4 -5 -3 -10 1 -10 9 0 9 -7 16 -15
16 -9 0 -18 7 -21 15 -5 12 -10 13 -20 4 -11 -9 -18 -8 -29 1 -17 14 -20 40
-4 40 5 0 7 5 4 10 -5 8 -12 7 -22 -1 -21 -18 -35 8 -21 35 11 20 10 20 -9 4
-24 -22 -37 -23 -29 -2 3 8 2 13 -2 10 -4 -2 -32 18 -61 44 -30 27 -58 47 -63
44 -4 -3 -8 2 -8 11 0 8 -7 18 -16 22 -12 4 -12 8 -4 13 9 5 6 10 -9 15 -11 3
-21 12 -21 20 0 7 -6 15 -14 18 -8 3 -17 19 -21 36 -6 29 -25 44 -25 20 0 -5
-5 -7 -10 -4 -6 4 -8 10 -5 15 3 5 1 11 -5 15 -6 4 -7 12 -3 18 4 7 0 6 -10
-2 -15 -12 -17 -11 -17 2 0 9 -5 27 -12 41 -9 22 -14 24 -26 13 -13 -9 -14 -9
-8 1 12 20 -4 35 -22 20 -15 -12 -16 -11 -3 5 12 15 11 21 -10 45 -13 15 -25
29 -26 31 -2 2 -11 -2 -20 -10 -16 -12 -17 -12 -5 2 10 14 6 23 -29 59 -35 36
-45 41 -60 32 -10 -7 -20 -8 -23 -3 -3 5 4 11 17 15 20 5 17 10 -35 57 -32 28
-56 55 -53 59 3 5 -5 6 -17 2 -17 -4 -20 -2 -15 11 4 11 1 17 -8 17 -8 0 -15
6 -15 13 0 13 -56 67 -69 67 -4 0 -13 12 -19 26 -7 14 -17 22 -22 19 -6 -3
-13 1 -16 10 -9 22 -60 75 -73 75 -6 0 -11 7 -11 16 0 8 -4 13 -9 10 -13 -8
-33 20 -35 48 -1 18 -4 22 -13 14 -10 -8 -13 -6 -13 6 0 9 -11 22 -25 28 -13
6 -27 19 -31 30 -3 10 -10 16 -15 13 -5 -4 -9 1 -9 10 0 8 -11 21 -25 27 -14
6 -25 15 -25 20 0 5 -19 21 -43 36 -24 15 -42 33 -39 40 2 7 -5 16 -17 19 -12
3 -21 12 -21 19 0 8 -5 14 -11 14 -6 0 -8 -8 -4 -19 3 -11 1 -22 -5 -26 -10
-6 -14 13 -11 48 1 9 -5 24 -13 33 -9 8 -16 12 -16 8 0 -5 -5 -3 -12 4 -9 9
-15 7 -25 -6 -13 -16 -13 -15 -11 4 2 11 -4 29 -12 39 -8 11 -10 16 -3 11 9
-5 11 -2 7 8 -3 8 -14 18 -25 21 -10 4 -19 11 -19 16 0 16 -18 10 -23 -8 -4
-14 -5 -12 -6 5 0 12 -5 22 -11 22 -5 0 -7 6 -5 13 3 6 -4 18 -16 25 -18 12
-23 12 -31 0 -7 -10 -11 -9 -23 6 -8 11 -15 16 -15 10 0 -5 -4 -3 -9 5 -5 8
-14 10 -21 6 -10 -6 -9 -11 5 -21 13 -10 16 -21 12 -44 -5 -23 -3 -30 9 -30
12 0 15 6 11 21 -4 16 -3 19 5 11 9 -9 15 -9 25 0 11 8 12 7 7 -6 -3 -9 -10
-16 -14 -16 -5 0 -7 -13 -5 -30 2 -16 0 -30 -5 -30 -6 0 -10 6 -10 13 0 7 -10
17 -22 22 -16 7 -22 18 -20 34 1 17 -2 22 -13 17 -14 -5 -65 33 -65 49 0 12
-44 44 -61 45 -8 0 -30 16 -49 35 -19 19 -38 35 -42 35 -11 0 -48 38 -48 50 0
6 -3 9 -7 8 -5 -1 -23 6 -40 15 -18 10 -36 17 -40 16 -4 0 -9 5 -11 13 -2 9 0
8 7 -2 6 -8 11 -10 11 -4 0 6 -9 19 -21 30 -15 14 -22 15 -28 6 -6 -9 -13 -7
-31 8 -18 15 -31 19 -57 14 -22 -4 -33 -2 -33 5 0 7 -9 25 -21 40 -15 20 -27
27 -41 23 -13 -3 -21 1 -24 14 -5 19 -46 44 -70 44 -7 0 -14 3 -16 8 -1 4 -19
15 -38 25 -20 10 -40 27 -45 39 -6 12 -25 29 -42 38 -48 25 -63 40 -63 61 0
11 -7 19 -15 19 -8 0 -15 5 -15 11 0 5 -4 7 -10 4 -5 -3 -21 5 -35 19 -14 15
-31 26 -38 26 -7 0 -43 25 -82 54 -38 30 -97 68 -130 86 -33 17 -69 37 -80 43
-58 34 -101 63 -114 75 -7 7 -26 16 -42 19 -16 3 -29 9 -29 13 0 3 -6 7 -12 8
-50 5 -76 9 -84 14 -5 2 -24 5 -41 6 -27 2 -32 -1 -27 -15 5 -17 5 -17 -9 0
-18 22 -31 22 -23 0 4 -9 2 -31 -5 -50 -8 -26 -16 -33 -32 -31 -15 2 -21 -2
-19 -12 3 -12 1 -13 -9 -2 -7 6 -24 12 -38 12 -19 0 -22 -3 -12 -9 7 -5 9 -11
4 -14 -14 -9 -33 10 -77 76 -22 32 -52 65 -68 73 -15 8 -28 19 -28 25 0 14
-52 69 -65 69 -14 0 -37 39 -30 50 4 6 0 13 -8 16 -18 7 -41 59 -33 73 3 5 -8
15 -25 23 -29 12 -30 15 -24 55 5 34 2 46 -16 67 -13 14 -30 26 -38 26 -9 0
-29 9 -46 20 -16 11 -39 20 -51 20 -11 0 -62 18 -112 40 -51 22 -105 42 -120
45 -40 8 -237 8 -263 0 -16 -6 -20 -4 -14 6 6 11 5 12 -6 2 -7 -7 -36 -13 -63
-13 -58 -1 -98 -9 -176 -40 -30 -11 -75 -28 -100 -37 -25 -8 -63 -23 -85 -33
-22 -10 -69 -30 -105 -45 -101 -42 -413 -200 -548 -278 -35 -21 -67 -37 -70
-37 -3 0 -13 -6 -21 -14 -9 -7 -45 -28 -81 -46 -36 -18 -81 -40 -100 -50 -19
-10 -39 -19 -45 -20 -5 -1 -28 -10 -50 -20 -23 -10 -54 -22 -70 -26 -17 -4
-38 -13 -49 -20 -10 -7 -25 -10 -33 -7 -8 3 -28 -4 -44 -16 -34 -25 -39 -17
-7 10 32 29 11 23 -37 -10 -26 -18 -42 -24 -38 -15 4 10 -11 5 -41 -13 -25
-15 -46 -34 -46 -41 0 -8 -6 -12 -14 -9 -8 3 -16 0 -19 -7 -3 -7 -23 -18 -46
-26 -23 -7 -41 -17 -41 -22 0 -4 -7 -8 -15 -8 -8 0 -29 -8 -48 -19 -40 -22
-135 -51 -170 -51 -14 0 -28 -4 -31 -9 -3 -5 -16 -11 -28 -14 -58 -14 -317
-118 -443 -178 -22 -10 -85 -39 -140 -65 -98 -45 -265 -127 -295 -143 -8 -5
-125 -63 -260 -130 -135 -66 -257 -128 -272 -136 -16 -8 -40 -22 -55 -30 -16
-8 -80 -40 -143 -71 -63 -31 -144 -70 -179 -87 -35 -17 -65 -37 -68 -44 -3 -7
-11 -13 -18 -13 -7 0 -15 -3 -17 -7 -1 -5 -24 -19 -51 -32 -26 -13 -47 -28
-47 -32 0 -5 -6 -9 -13 -9 -7 0 -24 -11 -39 -25 -36 -33 -97 -67 -109 -60 -5
4 -9 2 -9 -4 0 -5 -26 -28 -57 -50 -32 -22 -63 -45 -70 -50 -6 -6 -35 -24 -65
-42 -29 -18 -65 -45 -80 -61 -15 -15 -31 -28 -35 -28 -5 0 -29 -18 -53 -40
-25 -22 -49 -40 -53 -40 -5 0 -27 -15 -49 -34 -22 -19 -55 -42 -74 -51 -19 -9
-33 -21 -31 -27 1 -7 -4 -13 -10 -14 -7 -1 -17 -2 -23 -3 -5 0 -10 -8 -10 -16
0 -8 -7 -15 -15 -15 -8 0 -15 -4 -15 -8 0 -5 -16 -17 -35 -28 -19 -10 -35 -22
-35 -26 0 -5 -5 -8 -11 -8 -6 0 -29 -16 -52 -35 -22 -19 -46 -35 -53 -35 -7 0
-17 -6 -21 -13 -4 -8 -39 -31 -78 -52 -38 -21 -81 -50 -95 -65 -14 -14 -31
-25 -38 -22 -7 2 -12 -1 -12 -7 0 -6 -9 -11 -20 -11 -13 0 -18 -5 -14 -15 4
-8 1 -15 -5 -15 -6 0 -35 -15 -64 -33 -73 -46 -85 -53 -147 -87 -30 -17 -68
-39 -85 -50 -16 -11 -47 -27 -67 -37 -21 -10 -38 -21 -38 -25 0 -5 -7 -8 -15
-8 -8 0 -37 -13 -63 -30 -27 -16 -54 -30 -61 -30 -6 0 -11 -4 -11 -9 0 -5 -13
-7 -30 -6 -16 1 -30 -1 -30 -5 0 -12 -49 -22 -63 -13 -7 4 -16 8 -22 9 -5 0
-19 2 -30 3 -15 2 -16 4 -5 8 29 11 60 47 60 69 0 13 11 34 24 47 14 14 22 28
18 32 -4 3 1 11 11 17 14 7 15 13 7 23 -8 10 -2 23 28 54 22 23 44 40 50 39 5
-2 24 9 41 25 17 15 34 27 37 27 3 0 17 9 31 19 13 11 30 18 38 15 14 -6 41
33 37 54 -2 6 1 12 5 13 29 3 47 9 53 19 6 9 9 9 14 1 10 -16 29 -2 22 15 -3
8 0 14 7 13 17 -2 77 24 77 34 0 4 4 6 9 3 16 -10 42 6 52 30 6 17 17 24 36
25 l28 1 -30 8 c-25 6 -26 8 -7 9 13 0 20 6 17 11 -6 10 37 33 63 35 7 0 16 5
20 10 9 13 79 45 98 45 8 0 17 7 20 15 4 9 11 15 18 14 22 -4 66 13 60 23 -10
16 13 25 61 22 25 -2 45 1 45 7 0 5 -7 9 -15 9 -16 0 -19 9 -9 34 3 8 12 12
21 9 9 -4 14 -2 10 3 -3 6 3 11 15 11 11 1 32 10 46 20 15 9 31 16 37 15 5 -2
14 3 20 10 5 7 28 19 50 26 66 21 135 56 135 68 0 7 -10 14 -22 17 -26 7 -23
12 15 21 23 5 27 3 27 -15 0 -17 3 -19 14 -10 8 6 18 11 22 10 19 -4 42 13 37
27 -4 11 -9 12 -19 3 -11 -9 -14 -8 -14 5 0 9 4 16 10 16 5 0 31 15 57 34 27
19 107 62 178 96 169 81 224 109 257 132 25 17 56 32 243 117 39 18 88 42 110
53 22 11 58 27 80 35 21 7 60 26 85 42 25 16 56 32 70 36 14 3 52 19 85 35 33
16 114 52 180 80 155 67 160 69 290 130 61 29 137 62 170 75 33 13 155 62 270
110 116 47 221 90 235 95 14 4 59 22 100 40 41 17 109 44 150 60 41 16 129 52
195 80 66 28 151 63 188 76 38 14 79 31 90 38 12 8 65 30 117 51 136 52 217
90 625 290 348 171 456 219 685 308 116 45 321 109 395 123 111 20 397 33 414
18z m24356 -724 c44 -6 130 -18 190 -26 248 -34 602 -124 920 -235 463 -162
1247 -510 1560 -694 49 -29 153 -90 230 -135 276 -162 832 -564 865 -625 8
-15 19 -24 27 -20 9 3 11 0 7 -7 -5 -8 -2 -9 9 -5 10 3 17 2 17 -2 0 -5 -7
-11 -15 -15 -8 -3 -15 -2 -15 2 0 10 -56 43 -62 37 -3 -3 -17 6 -32 20 -15 14
-30 25 -35 25 -14 0 -94 42 -134 71 -22 16 -53 29 -68 29 -21 0 -27 4 -23 14
4 10 -1 15 -13 14 -38 -2 -132 24 -154 43 -15 13 -34 19 -50 17 -18 -3 -25 0
-23 7 7 18 -24 41 -38 27 -7 -7 -21 -4 -47 10 -20 12 -50 22 -68 23 -17 1 -39
10 -49 19 -11 11 -27 16 -42 13 -26 -5 -112 28 -124 47 -4 6 -11 11 -15 11
-29 2 -68 20 -94 43 -17 15 -33 26 -35 24 -2 -1 -18 5 -35 14 -18 9 -55 17
-83 19 -65 4 -65 5 -41 16 17 8 16 8 -7 4 -18 -3 -46 5 -85 25 -31 16 -63 30
-70 30 -7 0 -13 4 -13 9 0 8 -37 19 -85 24 -11 1 -27 9 -35 18 -8 9 -25 19
-37 23 -11 4 -27 13 -33 21 -7 8 -22 15 -33 15 -11 0 -29 8 -39 17 -22 19
-174 74 -182 65 -3 -3 -6 1 -6 10 0 9 -10 15 -27 15 -16 0 -54 12 -85 27 -31
14 -63 26 -71 26 -8 0 -26 9 -40 21 -15 11 -32 19 -39 18 -7 -1 -24 3 -38 9
-14 6 -54 20 -90 32 -109 36 -130 45 -130 52 0 5 -12 8 -28 8 -15 0 -37 7 -48
15 -12 8 -24 11 -28 8 -3 -3 -6 -1 -6 6 0 7 -6 11 -12 8 -7 -2 -20 1 -28 7
-30 24 -68 36 -74 23 -3 -8 -8 -6 -16 6 -6 10 -23 17 -41 17 -16 0 -40 7 -52
15 -13 8 -32 16 -42 18 -11 2 -31 9 -43 16 -13 7 -26 10 -29 7 -3 -3 -15 0
-27 6 -11 7 -34 14 -51 15 -43 5 -57 11 -50 23 4 6 -10 10 -36 10 -28 0 -47 6
-56 18 -8 9 -12 11 -8 4 5 -10 0 -11 -22 -6 -15 4 -31 11 -34 17 -4 5 -24 11
-44 13 -21 2 -49 11 -62 20 -21 13 -27 14 -34 3 -7 -11 -11 -10 -23 6 -9 11
-16 15 -16 8 0 -13 -25 -8 -49 11 -17 13 -43 17 -35 5 11 -18 -26 -9 -47 12
-15 15 -24 17 -33 10 -9 -7 -19 -6 -34 5 -12 8 -22 12 -22 8 0 -4 -6 0 -12 9
-8 10 -29 18 -53 20 -22 1 -43 6 -47 12 -4 5 -23 8 -43 7 -20 -2 -51 2 -68 7
-18 6 -53 15 -79 22 -28 7 -48 17 -48 25 0 17 -17 19 -22 3 -3 -8 -15 -9 -37
-4 -26 5 -30 9 -20 17 10 7 9 8 -6 3 -44 -16 -55 -17 -55 -6 0 13 -68 43 -81
35 -5 -3 -9 0 -9 5 0 6 -6 11 -14 11 -7 0 -19 6 -25 14 -6 7 -29 16 -50 20
-22 3 -41 11 -43 17 -2 7 -12 7 -32 -1 -30 -11 -50 -5 -27 9 18 11 2 19 -29
14 -48 -7 -64 -4 -80 16 -16 21 -81 51 -110 51 -13 0 -17 5 -13 21 3 11 11 18
17 16 7 -3 12 4 12 14 0 11 -4 19 -8 19 -4 0 -8 4 -8 9 0 7 92 23 255 45 54 8
398 -3 480 -14z m-765 -80 c0 -5 -4 -10 -10 -10 -5 0 -10 5 -10 10 0 6 5 10
10 10 6 0 10 -4 10 -10z m-64 -447 c3 -26 5 -28 14 -13 8 12 11 13 19 1 6 -9
11 -10 15 -2 5 8 13 8 27 1 15 -9 21 -7 25 5 8 19 24 20 24 0 0 -8 5 -15 10
-15 6 0 10 4 10 9 0 9 29 8 120 -4 19 -2 141 -31 270 -64 208 -53 327 -91 560
-178 36 -13 103 -37 148 -54 86 -30 203 -85 212 -99 3 -5 14 -10 25 -13 11 -2
8 -4 -7 -2 -19 1 -28 -3 -28 -13 0 -13 -3 -12 -18 1 -23 21 -36 22 -28 2 4
-10 -1 -14 -17 -12 -14 1 -25 -6 -32 -20 -10 -23 -45 -32 -45 -13 0 6 -5 10
-11 10 -5 0 -7 -5 -3 -11 5 -8 1 -8 -14 0 -17 9 -23 8 -31 -6 -6 -10 -11 -12
-11 -5 0 6 -9 12 -20 12 -13 0 -18 5 -14 15 4 8 1 15 -5 15 -19 0 -12 -29 10
-41 17 -9 19 -13 8 -20 -8 -4 -18 -4 -23 1 -6 6 -14 6 -22 -1 -9 -8 -12 -4
-10 15 3 24 0 26 -35 26 -36 0 -65 -20 -41 -28 17 -5 15 -22 -3 -22 -8 0 -15
9 -15 20 0 21 -15 27 -25 10 -9 -15 -28 -12 -22 4 3 7 1 18 -4 23 -17 17 2 43
32 43 16 0 29 5 29 11 0 5 -4 7 -10 4 -5 -3 -10 -1 -10 5 0 7 -7 7 -22 -1 -20
-11 -21 -10 -11 3 10 12 10 15 -2 15 -8 0 -15 -4 -15 -9 0 -4 -8 -8 -17 -8
-16 -1 -16 -2 -2 -13 17 -13 15 -37 -3 -37 -6 0 -17 8 -25 18 -10 12 -16 14
-19 5 -8 -18 -31 -16 -38 2 -3 8 0 14 7 12 7 -1 11 7 10 18 -1 11 0 14 3 8 7
-15 34 -17 34 -3 0 6 7 10 15 10 23 0 18 27 -7 33 -15 4 -26 1 -32 -10 -7 -13
-12 -10 -31 21 l-22 37 -21 -59 c-21 -56 -23 -58 -52 -54 -22 3 -30 0 -30 -11
0 -12 -8 -15 -35 -10 -30 5 -34 3 -29 -11 4 -10 1 -16 -8 -16 -7 0 -14 -8 -15
-17 -2 -52 -8 -81 -15 -77 -4 2 -6 22 -4 43 2 31 0 38 -11 34 -12 -5 -12 -7
-1 -14 9 -6 4 -9 -16 -9 -23 0 -26 -3 -17 -14 8 -9 8 -16 2 -20 -5 -4 -12 -2
-16 4 -10 17 -35 12 -28 -6 5 -13 2 -15 -15 -9 -13 4 -22 2 -22 -4 0 -6 5 -11
10 -11 6 0 5 -8 -2 -19 -11 -18 -13 -18 -25 -3 -10 13 -12 14 -13 3 0 -8 -7
-23 -17 -33 -15 -17 -15 -18 5 -18 12 0 22 -4 22 -10 0 -5 -6 -7 -14 -4 -10 4
-12 -1 -9 -19 4 -21 1 -24 -26 -25 -18 0 -31 4 -31 11 0 9 -3 8 -8 -1 -5 -7
-19 -11 -32 -10 -17 2 -23 -2 -25 -19 -3 -36 -15 -40 -35 -13 -15 19 -20 21
-20 9 0 -9 7 -22 15 -29 8 -7 15 -17 15 -23 0 -5 -9 -2 -20 8 -18 16 -20 16
-35 1 -9 -9 -20 -16 -25 -16 -16 0 -22 21 -10 35 14 16 12 17 -42 20 -21 1
-35 -2 -32 -6 3 -5 14 -9 25 -9 16 0 18 -5 13 -27 -8 -34 -4 -29 -31 -37 -20
-6 -23 -4 -23 18 0 14 5 26 10 26 6 0 10 -8 10 -17 0 -14 2 -15 13 -4 10 10 7
16 -12 32 -26 21 -51 25 -51 8 0 -7 -8 -18 -17 -25 -16 -12 -15 -13 10 -14 17
0 27 -5 27 -15 0 -18 -12 -19 -27 -4 -14 14 -33 3 -33 -18 0 -12 -3 -13 -13
-4 -8 6 -18 7 -22 3 -5 -4 -5 -1 -1 6 9 15 -20 52 -41 52 -7 0 -16 -7 -19 -15
-4 -8 -12 -15 -19 -15 -7 0 -18 7 -25 15 -10 12 -9 15 4 15 10 0 14 5 11 10
-9 15 -45 12 -45 -4 0 -12 -34 -30 -52 -27 -5 1 -8 -4 -8 -10 0 -5 -5 -7 -10
-4 -7 4 -6 13 1 27 8 14 18 19 35 15 31 -6 32 9 1 17 -13 3 -29 17 -37 30 -15
29 -40 42 -40 22 0 -9 -7 -12 -20 -9 -11 3 -20 9 -20 13 0 4 -11 5 -25 2 -20
-3 -24 -1 -19 11 3 10 12 13 22 10 13 -5 14 -3 6 6 -9 10 -17 10 -34 1 -12 -6
-32 -9 -45 -6 -18 5 -25 0 -35 -24 -7 -17 -17 -30 -22 -30 -5 0 -7 -4 -4 -9 7
-11 -46 -1 -63 13 -12 9 -13 8 -8 -7 5 -13 3 -17 -5 -15 -7 3 -13 13 -13 23 0
12 -10 22 -25 26 -23 6 -24 7 -5 13 11 4 27 11 36 16 20 10 65 -22 54 -40 -5
-8 -1 -11 11 -8 11 2 18 11 18 21 -1 9 7 19 17 22 11 4 19 12 19 19 0 17 -25
38 -33 29 -4 -3 -7 -1 -7 5 0 7 6 12 13 13 9 0 9 2 -1 6 -6 2 -10 9 -6 14 3 5
-4 9 -15 9 -12 0 -21 -5 -21 -12 0 -15 -13 -1 -16 17 -1 8 4 15 12 15 8 0 14
5 14 10 0 6 -7 10 -15 10 -8 0 -15 7 -15 15 0 8 -7 15 -15 15 -17 0 -20 -16
-4 -26 6 -3 8 -16 5 -27 -3 -12 0 -27 6 -34 6 -7 6 -13 2 -13 -5 0 -15 9 -22
20 -7 11 -17 20 -22 20 -6 0 -10 -9 -10 -20 0 -11 -4 -20 -10 -20 -5 0 -10 11
-10 25 0 16 6 25 15 25 8 0 15 5 15 11 0 6 -11 8 -28 4 -23 -5 -28 -2 -28 15
0 20 7 23 56 24 15 1 26 8 28 18 3 14 -1 16 -14 11 -13 -5 -16 -3 -11 10 4 11
1 17 -8 17 -8 0 -15 -5 -15 -11 0 -5 -5 -7 -12 -3 -9 6 -9 9 0 12 14 4 16 58
3 66 -11 7 -11 56 1 56 5 0 7 -4 4 -8 -3 -5 3 -22 13 -38 21 -35 57 -42 64
-13 3 12 0 19 -10 19 -8 0 -12 4 -9 9 4 5 0 12 -6 15 -7 3 -3 3 9 1 12 -3 24
-1 28 5 3 6 10 8 15 5 4 -3 6 4 3 15 -3 11 -9 23 -14 26 -15 9 -10 34 7 34 8
0 12 -5 8 -11 -7 -12 12 -29 34 -29 6 0 12 5 12 10 0 5 -5 9 -11 8 -6 -2 -13
10 -14 25 -3 22 0 27 11 23 9 -3 19 -6 24 -6 4 0 6 -10 3 -22 -6 -22 -5 -21
16 4 24 30 26 40 9 37 -7 0 -24 2 -38 7 -24 8 -24 8 10 15 26 6 38 4 46 -7 6
-7 21 -14 34 -14 19 0 20 2 10 15 -7 8 -20 14 -29 13 -9 -2 -15 3 -13 10 1 7
-9 12 -25 13 l-28 1 25 7 c14 3 35 15 47 26 l23 19 -23 13 -22 12 23 1 c12 0
22 4 22 10 0 15 44 7 51 -10 5 -11 10 -7 19 15 7 17 14 25 17 18 5 -14 42 2
56 25 15 23 26 12 17 -17 -12 -42 0 -46 20 -8 12 21 14 34 7 39 -6 3 5 6 24 5
19 -1 35 -8 35 -14z m-438 -272 c-15 -5 -19 4 -11 24 6 18 7 18 13 -1 4 -10 3
-21 -2 -23z m-33 -1 c-3 -5 -12 -10 -18 -10 -7 0 -6 4 3 10 19 12 23 12 15 0z
m16 -57 c23 -46 22 -49 -2 -24 -24 25 -34 51 -20 51 4 0 14 -12 22 -27z m-73
-18 c-3 -3 -9 2 -12 12 -6 14 -5 15 5 6 7 -7 10 -15 7 -18z m-18 -9 c0 -3 -4
-8 -10 -11 -5 -3 -10 -1 -10 4 0 6 5 11 10 11 6 0 10 -2 10 -4z m1445 -27 c11
-17 0 -20 -21 -4 -17 13 -17 14 -2 15 9 0 20 -5 23 -11z m-25 -53 c0 -8 -13
-28 -30 -46 -26 -28 -30 -29 -30 -12 0 11 7 22 15 26 8 3 15 15 15 26 0 11 7
20 15 20 8 0 15 -6 15 -14z m-1430 -4 c0 -14 -23 -32 -42 -32 -25 0 -23 15 5
28 27 13 37 14 37 4z m1346 -14 c3 -4 -4 -16 -15 -27 -12 -12 -21 -18 -21 -15
0 4 -6 1 -14 -5 -12 -10 -14 -8 -12 12 2 13 6 28 9 34 7 10 42 11 53 1z m211
-24 c-3 -3 -12 -4 -19 -1 -8 3 -5 6 6 6 11 1 17 -2 13 -5z m-92 -22 c0 -18
-20 -15 -23 4 -3 10 1 15 10 12 7 -3 13 -10 13 -16z m-21969 -29 c-10 -10 -19
5 -10 18 6 11 8 11 12 0 2 -7 1 -15 -2 -18z m21774 -3 c0 -5 -4 -10 -10 -10
-5 0 -10 5 -10 10 0 6 5 10 10 10 6 0 10 -4 10 -10z m-1246 -25 c3 -9 0 -15
-8 -15 -8 0 -22 -3 -32 -7 -16 -6 -15 -4 2 14 23 26 30 27 38 8z m1134 -11 c0
-15 -4 -22 -10 -16 -5 5 -6 16 -2 25 9 23 12 21 12 -9z m45 -4 c4 -17 2 -18
-14 -9 -11 5 -17 14 -14 20 10 15 22 10 28 -11z m-1298 0 c-11 -17 5 -32 20
-20 10 8 15 6 20 -9 7 -22 21 -28 27 -10 2 5 11 7 21 3 11 -4 16 -13 12 -21
-3 -10 -1 -13 8 -10 8 3 20 1 28 -4 8 -5 9 -9 2 -9 -6 0 -9 -9 -5 -22 4 -18 2
-20 -14 -13 -28 12 -74 14 -74 4 0 -5 -7 -9 -16 -9 -8 0 -12 5 -8 11 4 8 0 9
-15 4 -24 -7 -88 4 -75 14 5 3 10 12 12 20 2 11 -6 13 -37 8 -36 -4 -40 -3
-46 21 -7 28 7 48 26 37 19 -12 93 -9 97 3 2 7 8 12 13 12 6 0 7 -4 4 -10z
m-20325 -40 c0 -5 -10 -10 -22 -10 -19 0 -20 2 -8 10 19 13 30 13 30 0z
m20580 1 c0 -5 -7 -14 -15 -21 -8 -7 -15 -10 -15 -7 0 3 -3 12 -6 21 -4 12 0
16 15 16 12 0 21 -4 21 -9z m975 -21 c3 -5 -1 -10 -9 -10 -9 0 -16 5 -16 10 0
6 4 10 9 10 6 0 13 -4 16 -10z m-948 -6 c-3 -3 -12 -4 -19 -1 -8 3 -5 6 6 6
11 1 17 -2 13 -5z m918 -34 c3 -5 -1 -10 -10 -10 -9 0 -13 5 -10 10 3 6 8 10
10 10 2 0 7 -4 10 -10z m-21365 -10 c0 -5 -5 -10 -11 -10 -5 0 -7 5 -4 10 3 6
8 10 11 10 2 0 4 -4 4 -10z m20574 -10 c30 -11 31 -17 11 -45 -15 -18 -16 -18
-33 -1 -16 17 -16 18 6 11 14 -4 22 -2 22 5 0 6 -4 9 -8 6 -4 -2 -13 4 -20 15
-14 22 -13 23 22 9z m-48 -12 c11 -18 12 -48 2 -48 -4 0 -8 5 -8 11 0 6 -7 9
-15 5 -11 -4 -15 1 -15 19 0 27 23 34 36 13z m-211 -8 c8 -13 -25 -13 -45 0
-12 8 -9 10 12 10 15 0 30 -4 33 -10z m943 -27 c0 -12 -4 -23 -9 -23 -5 0 -9
5 -9 12 0 9 -3 9 -12 0 -16 -16 -28 -15 -28 3 0 15 23 32 45 32 7 0 13 -11 13
-24z m-837 -6 c-7 -7 -17 -7 -33 1 l-23 12 23 -6 c13 -3 22 -1 22 6 0 6 5 8
11 4 7 -4 8 -9 0 -17z m230 16 c8 -49 7 -51 -22 -36 -18 9 -26 19 -22 28 5 15
42 21 44 8z m-24516 -13 c3 -5 1 -10 -4 -10 -6 0 -11 5 -11 10 0 6 2 10 4 10
3 0 8 -4 11 -10z m21452 -9 c10 -10 38 -28 61 -40 24 -13 60 -40 80 -61 19
-22 55 -52 79 -67 24 -15 43 -30 43 -33 0 -6 65 -37 127 -60 39 -15 68 -46 77
-84 6 -26 6 -28 -9 -16 -12 10 -19 10 -27 2 -7 -7 -8 -12 -3 -12 5 0 -2 -11
-14 -24 -13 -14 -29 -22 -37 -19 -8 3 -14 0 -14 -6 0 -7 -13 -10 -36 -7 -29 4
-37 1 -46 -19 -12 -26 -60 -44 -66 -25 -4 10 -6 10 -12 0 -5 -9 -17 -8 -45 4
-26 11 -42 13 -49 6 -6 -6 -14 -6 -23 1 -10 9 -13 8 -13 -2 0 -11 -2 -11 -10
1 -5 8 -10 12 -10 8 0 -5 -9 1 -20 12 -22 22 -40 26 -40 10 0 -6 -6 -5 -14 2
-8 7 -11 17 -8 22 3 5 0 6 -6 2 -6 -3 -17 1 -25 9 -9 8 -20 15 -25 15 -5 0
-15 7 -22 15 -7 8 -23 15 -37 15 -26 0 -45 14 -56 43 -3 9 -12 17 -18 17 -8 0
-10 13 -5 41 4 26 3 38 -4 34 -5 -3 -10 -1 -10 5 0 7 8 9 20 5 14 -4 20 -2 20
9 0 14 -27 28 -60 31 -17 2 -48 12 -72 26 -11 5 -19 5 -23 -1 -8 -13 -76 -41
-88 -37 -17 5 114 98 188 132 135 64 220 80 252 46z m2875 12 c-6 -2 -10 -9
-6 -14 3 -5 -2 -9 -12 -9 -13 0 -14 3 -4 15 7 8 18 15 24 14 7 0 6 -2 -2 -6z
m621 -57 c7 -18 -1 -26 -25 -26 -21 0 -23 6 -5 25 16 18 24 18 30 1z m-24773
-56 c14 -7 29 -19 33 -26 4 -8 13 -14 18 -14 11 0 39 -25 39 -34 0 -3 -10 -6
-23 -6 -27 0 -108 49 -143 87 -23 25 -24 28 -7 34 11 4 26 0 38 -11 11 -10 31
-23 45 -30z m24670 -37 c0 -30 -9 -27 -15 6 -2 11 0 21 6 21 5 0 9 -12 9 -27z
m-20650 -113 c0 -5 -4 -10 -10 -10 -5 0 -10 5 -10 10 0 6 5 10 10 10 6 0 10
-4 10 -10z m20115 -65 c367 -25 537 -45 737 -85 110 -23 148 -35 148 -49 0
-10 -29 -23 -38 -17 -4 2 -23 7 -42 10 -19 3 -57 10 -85 16 -27 6 -61 13 -75
15 -14 2 -52 8 -85 13 -39 6 -61 6 -64 0 -2 -7 -6 -7 -10 -1 -3 6 -21 13 -38
16 -27 5 -33 3 -33 -11 0 -10 -3 -13 -8 -7 -4 6 -27 10 -52 10 -25 -1 -63 2
-85 6 -57 10 -176 19 -515 40 -200 12 -846 5 -1005 -11 -109 -12 -130 -11 -90
1 44 13 292 48 420 58 181 14 692 12 920 -4z m-20125 -37 c0 -5 -9 -4 -20 2
-11 6 -20 12 -20 14 0 2 9 2 20 -1 11 -3 20 -9 20 -15z m18737 -34 c-3 -3 -12
-4 -19 -1 -8 3 -5 6 6 6 11 1 17 -2 13 -5z m-74 -21 c-7 -2 -21 -2 -30 0 -10
3 -4 5 12 5 17 0 24 -2 18 -5z m-18510 -106 c-3 -5 -9 -4 -13 3 -4 6 -11 10
-16 8 -5 -1 -10 7 -12 19 l-3 23 24 -22 c14 -13 23 -27 20 -31z m25032 -2 c16
-13 27 -26 25 -29 -3 -2 -20 9 -38 25 -39 35 -29 38 13 4z m-30767 -66 c24
-11 40 -24 37 -29 -3 -6 2 -10 13 -10 10 0 28 -10 40 -22 33 -36 46 -44 65
-40 9 2 17 -2 17 -8 0 -8 8 -10 21 -7 15 4 19 2 15 -8 -3 -8 -1 -17 4 -20 6
-4 10 1 10 9 0 11 9 16 28 15 15 0 21 -3 15 -6 -19 -7 -16 -30 7 -46 18 -13
14 -15 -50 -27 -64 -12 -73 -12 -106 6 -37 19 -176 152 -174 167 0 4 -6 15
-15 23 -8 9 -13 20 -10 24 6 10 21 6 83 -21z m22666 2 c4 -5 -3 -7 -14 -4 -23
6 -26 13 -6 13 8 0 17 -4 20 -9z m-21164 -11 c0 -5 -5 -10 -11 -10 -5 0 -7 5
-4 10 3 6 8 10 11 10 2 0 4 -4 4 -10z m-30 -20 c0 -5 -2 -10 -4 -10 -3 0 -8 5
-11 10 -3 6 -1 10 4 10 6 0 11 -4 11 -10z m21339 -16 c2 -2 -12 -4 -31 -4 -20
0 -41 6 -47 14 -10 12 -5 13 31 4 23 -5 44 -11 47 -14z m-21479 6 c0 -5 -5
-10 -11 -10 -5 0 -7 5 -4 10 3 6 8 10 11 10 2 0 4 -4 4 -10z m87 -9 c0 -11 -4
-18 -8 -15 -4 2 -11 -1 -14 -7 -4 -5 -13 -8 -19 -6 -7 3 -19 1 -27 -5 -11 -8
-10 -9 4 -4 39 13 13 -7 -45 -33 -35 -16 -83 -38 -108 -50 -25 -12 -97 -38
-160 -59 -62 -20 -115 -42 -117 -48 -2 -6 8 -16 22 -22 14 -6 25 -16 25 -22 0
-18 -26 -10 -51 16 -13 14 -45 37 -71 51 -27 15 -48 30 -48 35 0 4 -11 8 -25
8 -22 0 -60 15 -75 30 -3 3 -32 6 -65 7 -33 2 -62 8 -64 14 -2 8 -6 7 -12 -2
-11 -18 -23 -4 -15 17 5 12 14 15 37 10 18 -3 28 -2 24 4 -4 6 7 10 27 9 18
-1 25 -3 16 -6 -10 -2 -18 -9 -18 -15 0 -5 7 -7 16 -4 40 16 64 18 64 6 0 -9
4 -10 13 -2 17 14 59 4 50 -12 -4 -7 -1 -6 9 2 8 6 37 14 64 16 27 3 57 8 67
11 12 5 17 2 17 -10 0 -17 1 -17 20 0 13 12 27 15 45 11 15 -4 25 -2 25 4 0 6
4 8 10 5 5 -3 25 1 45 11 19 9 46 17 60 18 13 0 27 6 29 12 2 7 16 9 30 7 18
-4 26 -1 26 9 0 12 14 14 62 9 4 -1 5 -8 1 -17 -5 -15 -3 -15 25 0 17 9 41 16
54 17 23 1 23 1 -2 9 -21 7 -19 8 17 9 35 1 42 -2 40 -18z m1411 -23 c7 -7 12
-23 12 -36 l0 -25 -20 26 c-30 37 -23 66 8 35z m13867 -8 c426 -24 716 -107
885 -254 180 -156 281 -226 323 -226 49 0 1117 -335 2072 -651 934 -308 1024
-338 1190 -399 201 -74 217 -81 255 -122 18 -18 30 -25 30 -17 0 11 2 11 10
-1 5 -9 5 -19 0 -24 -10 -10 12 -36 29 -36 6 0 11 -4 11 -10 0 -5 7 -10 15
-10 8 0 15 -9 15 -20 0 -11 5 -19 12 -17 7 1 17 -17 23 -41 9 -34 13 -40 23
-30 10 10 15 10 22 -2 8 -13 10 -12 10 3 0 21 13 22 30 2 7 -9 29 -15 51 -15
32 0 39 -3 39 -20 0 -15 -7 -20 -28 -20 -15 0 -33 -5 -39 -11 -11 -11 -36 -17
-99 -23 -18 -2 -42 -10 -54 -19 -13 -9 -27 -14 -32 -11 -4 3 -8 2 -8 -3 0 -4
-15 -9 -33 -11 -43 -3 -113 -29 -110 -40 1 -6 -6 -8 -15 -5 -10 2 -31 -1 -47
-8 -17 -7 -36 -11 -44 -10 -8 2 -24 -2 -35 -7 -37 -18 -61 -25 -73 -23 -7 1
-13 -3 -13 -10 0 -8 -4 -8 -13 -1 -10 9 -19 7 -35 -4 -12 -8 -22 -13 -22 -11
0 3 -33 -4 -72 -15 -40 -10 -102 -26 -138 -33 -36 -8 -72 -18 -80 -22 -8 -3
-24 -7 -35 -8 -11 -1 -65 -11 -120 -23 -55 -11 -143 -23 -195 -27 -52 -3 -122
-10 -155 -14 -34 -4 -63 -4 -66 1 -3 5 -32 10 -65 12 -32 2 -99 17 -149 34
-49 17 -110 34 -135 37 -25 4 -50 11 -56 16 -5 5 -26 10 -46 13 -20 2 -46 9
-58 16 -18 10 -164 57 -195 64 -5 1 -14 4 -20 8 -12 7 -311 107 -530 177 -88
28 -181 58 -206 66 -26 8 -52 15 -58 15 -7 0 -30 9 -53 20 -22 11 -45 17 -50
14 -5 -3 -14 -1 -21 5 -15 12 -91 32 -132 34 -16 1 -34 8 -38 15 -4 6 -16 12
-27 12 -10 0 -31 5 -47 12 -15 6 -36 10 -45 9 -11 -1 -18 4 -18 13 0 10 -9 16
-22 17 -46 2 -77 15 -95 38 -7 9 -13 11 -13 5 0 -6 -13 -9 -30 -6 -25 3 -30 9
-30 31 0 19 -3 22 -9 12 -5 -8 -16 -11 -24 -8 -9 3 -17 1 -19 -5 -3 -7 -11 -6
-25 2 -12 8 -19 20 -16 29 4 14 3 14 -5 2 -11 -16 -10 -16 -84 24 -10 5 -16
16 -13 24 4 10 -1 12 -20 7 -19 -5 -23 -3 -19 9 3 8 11 12 18 9 6 -4 3 2 -7
12 -9 10 -31 19 -48 20 -37 2 -48 12 -29 24 8 6 11 10 5 11 -5 1 -14 2 -20 4
-5 1 -17 3 -25 4 -12 1 -11 5 5 17 14 11 15 15 5 14 -25 -4 -44 0 -37 6 3 3 2
17 -3 29 -6 16 -5 25 2 27 7 3 8 11 4 19 -8 16 -11 22 -78 132 -27 43 -48 82
-48 87 0 4 -4 10 -8 12 -5 2 -32 46 -62 98 -29 52 -60 99 -67 103 -7 5 -11 12
-8 18 4 5 1 9 -4 9 -6 0 -11 10 -11 23 0 18 -2 19 -10 7 -7 -11 -10 -7 -10 18
0 17 -4 32 -10 32 -5 0 -10 -4 -10 -8 0 -5 -7 -9 -15 -9 -10 0 -12 4 -5 12 8
9 5 14 -10 18 -14 4 -20 13 -20 32 0 24 -2 26 -17 14 -9 -8 -18 -13 -20 -11
-1 1 -2 -1 -1 -5 2 -5 6 -7 9 -6 4 1 9 -9 12 -22 2 -14 0 -25 -4 -25 -5 0 -9
-8 -9 -17 -1 -16 -2 -16 -15 1 -13 17 -15 17 -15 4 0 -9 -4 -19 -9 -22 -5 -3
-8 5 -7 19 1 19 7 25 24 25 12 0 22 5 22 10 0 6 -11 8 -25 6 -16 -3 -25 0 -25
8 0 9 -12 13 -37 12 -22 -1 -45 5 -54 14 -16 15 -15 35 2 25 5 -4 9 -2 9 4 0
18 -21 23 -37 9 -14 -11 -17 -11 -21 1 -4 11 -6 11 -14 0 -7 -11 -8 -9 -6 6 2
12 12 21 26 23 22 3 53 42 32 42 -5 0 -10 -7 -10 -16 0 -9 -7 -14 -17 -12 -10
1 -23 -1 -30 -5 -13 -8 -43 1 -43 14 0 5 -6 9 -14 9 -12 0 -14 13 -7 53 2 17
21 -5 22 -26 1 -20 2 -21 6 -2 3 11 10 26 16 33 5 7 7 16 3 19 -4 4 -11 1 -17
-7 -8 -13 -10 -13 -19 0 -6 10 -10 11 -10 3 0 -7 -6 -12 -12 -10 -7 1 -12 -4
-10 -10 4 -21 -16 -14 -23 8 -8 23 -30 20 -30 -5 0 -9 -5 -20 -11 -24 -6 -4
-14 -14 -17 -22 -4 -10 -6 -8 -6 8 -1 12 3 22 8 22 4 0 6 11 3 25 -2 14 -9 25
-14 25 -5 0 -7 -4 -3 -9 3 -5 1 -12 -5 -16 -5 -3 -12 5 -15 18 -6 24 -41 52
-49 39 -3 -4 -1 -14 5 -22 5 -8 9 -11 9 -5 0 5 7 -1 16 -14 12 -17 14 -25 5
-34 -9 -9 -19 -4 -40 21 -29 32 -55 46 -30 15 10 -11 11 -17 3 -20 -7 -2 -10
-13 -7 -23 5 -21 -11 -28 -22 -10 -10 16 -38 12 -31 -5 4 -10 -1 -15 -15 -15
-17 0 -18 3 -9 20 6 11 7 20 1 20 -5 0 -14 -13 -20 -30 -5 -16 -12 -30 -15
-30 -3 0 -3 7 0 15 5 11 -1 15 -25 15 -24 0 -29 -3 -24 -17 5 -12 2 -15 -10
-10 -14 5 -16 2 -11 -20 5 -18 4 -24 -5 -19 -6 4 -11 18 -11 32 0 14 -6 24
-15 24 -9 0 -12 -6 -8 -15 3 -10 1 -15 -7 -13 -7 2 -14 -2 -17 -9 -2 -6 6 -13
18 -15 12 -2 26 -14 31 -27 8 -24 8 -24 -11 -7 -24 22 -31 6 -19 -48 10 -45 9
-47 -20 -39 -20 5 -21 7 -6 18 13 9 14 16 5 33 -6 12 -20 26 -32 32 -11 6 -16
16 -13 22 4 7 3 8 -4 4 -7 -4 -12 -19 -12 -34 0 -19 3 -23 11 -15 14 14 39 6
39 -14 0 -8 -5 -11 -10 -8 -7 4 -9 -4 -6 -22 3 -15 10 -29 16 -31 5 -2 10 -10
10 -18 0 -8 7 -14 16 -14 8 0 12 -4 9 -10 -3 -6 4 -10 16 -10 l23 0 -24 -22
c-18 -17 -20 -23 -9 -26 8 -3 17 -9 20 -15 8 -12 -1 -47 -12 -47 -5 0 -9 -4
-9 -10 0 -5 7 -10 15 -10 8 0 15 4 15 10 0 14 43 6 48 -8 2 -7 -5 -11 -18 -10
-18 2 -25 -5 -34 -30 -6 -18 -15 -30 -20 -25 -5 4 -6 2 -2 -5 4 -7 12 -9 18
-6 6 4 8 -1 4 -14 -5 -16 -1 -22 22 -30 27 -9 29 -14 27 -55 -1 -25 -7 -53
-14 -61 -8 -9 -11 -16 -7 -16 3 0 -3 -9 -14 -20 -11 -11 -26 -19 -32 -17 -8 1
-12 -7 -11 -21 2 -15 -5 -26 -21 -33 -15 -7 -26 -23 -30 -43 -7 -30 -8 -30
-21 -12 -14 18 -15 18 -15 2 0 -12 -5 -16 -15 -12 -9 3 -15 0 -15 -8 0 -14
-57 -46 -82 -46 -10 0 -9 -3 2 -10 15 -10 13 -11 -25 -14 -13 0 -19 -7 -17
-17 1 -11 -8 -21 -27 -27 -16 -6 -32 -20 -36 -31 -3 -12 -10 -21 -14 -21 -4 0
-19 -9 -32 -21 -13 -11 -31 -18 -41 -16 -10 3 -18 0 -18 -6 0 -6 -3 -7 -7 -4
-3 4 -26 -5 -50 -19 -43 -25 -62 -27 -48 -5 3 6 13 11 22 11 9 0 14 3 10 6 -3
4 12 25 35 48 22 22 61 73 87 111 42 65 53 84 86 156 7 14 10 41 8 60 -2 19
-5 70 -6 114 -2 67 -8 90 -34 141 -33 64 -63 98 -63 73 -1 -8 -10 4 -22 26
-15 29 -22 65 -26 131 -3 71 -9 96 -24 115 -11 13 -17 18 -13 12 3 -7 1 -13
-4 -13 -6 0 -11 -7 -11 -15 0 -8 -13 -29 -29 -47 -15 -18 -33 -43 -40 -55 -8
-15 -21 -23 -39 -24 -28 0 -75 -16 -57 -19 22 -3 -32 -19 -67 -19 -20 -1 -39
-5 -43 -10 -5 -8 -92 -39 -133 -47 -7 -1 -38 -10 -69 -20 -58 -18 -231 -26
-287 -12 -16 4 -55 12 -85 18 -71 14 -150 39 -176 56 -11 7 -45 22 -76 34 -42
15 -72 37 -121 88 -36 37 -69 78 -73 92 -10 34 -34 60 -56 60 -11 0 -21 9 -24
23 -19 75 108 245 232 309 129 68 180 80 359 83 88 1 165 5 171 8 9 6 179 12
198 7 6 -1 12 -1 15 0 17 6 99 6 95 0 -3 -5 0 -12 6 -16 7 -4 9 -3 6 2 -3 6 9
15 26 22 18 7 45 20 62 28 19 10 31 12 33 5 2 -7 9 -6 18 3 7 8 23 12 34 9 11
-3 26 -1 33 5 51 42 360 61 692 42z m-16198 -46 c-3 -3 -12 -4 -19 -1 -8 3 -5
6 6 6 11 1 17 -2 13 -5z m-172 -14 c3 -6 -1 -7 -9 -4 -18 7 -21 14 -7 14 6 0
13 -4 16 -10z m3188 -17 c64 -9 117 -20 117 -25 0 -5 -10 -8 -22 -7 -49 4 -68
-2 -117 -41 -28 -22 -53 -40 -57 -40 -3 0 -18 -9 -33 -19 -14 -11 -49 -22 -76
-26 -47 -6 -77 -17 -148 -51 -16 -8 -35 -14 -42 -14 -7 0 -27 -11 -43 -25 -17
-14 -35 -25 -41 -25 -7 0 -14 -6 -17 -14 -12 -30 -114 -49 -114 -21 0 35 154
165 353 298 49 32 76 34 240 10z m-3228 -3 c3 -5 1 -10 -4 -10 -6 0 -11 5 -11
10 0 6 2 10 4 10 3 0 8 -4 11 -10z m3465 -126 c0 -8 -4 -14 -9 -14 -11 0 -22
26 -14 34 9 9 23 -3 23 -20z m27610 -204 c0 -5 -4 -10 -10 -10 -5 0 -10 5 -10
10 0 6 5 10 10 10 6 0 10 -4 10 -10z m48 -52 c2 -10 12 -18 22 -18 17 0 68
-43 183 -156 61 -60 246 -281 465 -557 213 -268 309 -399 444 -607 41 -63 91
-170 84 -178 -3 -3 -9 4 -13 14 -4 10 -16 28 -28 39 -12 11 -30 36 -41 55 -10
19 -33 53 -50 75 -17 22 -36 50 -43 62 -10 20 -162 199 -181 213 -3 3 -19 23
-35 45 -16 22 -42 52 -57 68 -15 15 -25 27 -23 27 3 0 -3 9 -14 21 -11 12 -32
37 -48 55 -15 19 -43 51 -60 72 -18 20 -33 40 -33 44 0 7 -18 31 -45 62 -6 6
-28 34 -50 61 -22 28 -48 57 -58 66 -9 9 -39 45 -65 80 -26 36 -62 78 -79 95
-18 17 -33 36 -33 43 0 6 -4 11 -8 11 -4 0 -13 15 -20 33 -11 29 -92 127 -92
110 0 -4 -6 2 -14 12 -8 11 -12 23 -10 26 2 4 -12 20 -32 35 -20 16 -45 37
-57 47 -11 9 -24 17 -28 17 -5 0 -6 7 -3 15 4 9 0 15 -10 15 -9 0 -16 4 -16 9
0 17 43 7 48 -11z m-14538 -108 c0 -11 -4 -20 -10 -20 -5 0 -10 9 -10 20 0 11
5 20 10 20 6 0 10 -9 10 -20z m-115 -10 c3 -5 1 -10 -4 -10 -6 0 -11 5 -11 10
0 6 2 10 4 10 3 0 8 -4 11 -10z m82 -12 c-3 -8 -6 -5 -6 6 -1 11 2 17 5 13 3
-3 4 -12 1 -19z m-10214 -5 c-3 -6 -11 -9 -19 -6 -20 7 -17 19 5 19 11 0 17
-6 14 -13z m10322 8 c9 -16 -9 -20 -23 -5 -10 12 -10 14 2 14 8 0 17 -4 21 -9z
m-295 -11 c0 -5 -5 -10 -11 -10 -6 0 -9 -9 -6 -20 4 -14 -2 -24 -16 -32 -19
-9 -20 -9 -11 3 6 8 14 26 18 42 6 25 26 39 26 17z m-1910 -14 c0 -11 -19 -15
-25 -6 -3 5 1 10 9 10 9 0 16 -2 16 -4z m2280 -20 c0 -3 -4 -8 -10 -11 -5 -3
-10 -1 -10 4 0 6 5 11 10 11 6 0 10 -2 10 -4z m-2310 -100 c-18 -18 -22 -19
-30 -6 -16 24 -7 53 20 67 23 12 25 11 28 -14 2 -16 -4 -34 -18 -47z m1875 2
c3 -18 2 -26 -2 -18 -3 8 -10 18 -16 21 -5 4 -7 15 -3 24 9 24 17 14 21 -27z
m27 -10 c-9 -9 -12 -7 -12 12 0 19 3 21 12 12 9 -9 9 -15 0 -24z m88 28 c0 -3
-4 -8 -10 -11 -5 -3 -10 -1 -10 4 0 6 5 11 10 11 6 0 10 -2 10 -4z m500 -10
c0 -2 -11 -6 -25 -8 -14 -3 -25 -1 -25 3 0 5 11 9 25 9 14 0 25 -2 25 -4z
m-16011 -88 c6 -18 13 -52 17 -76 4 -23 11 -45 15 -48 12 -7 11 -74 -1 -74 -5
0 -11 5 -11 10 -1 6 -3 15 -4 20 -1 6 -3 14 -4 20 0 5 -7 7 -15 4 -16 -6 -46
21 -46 42 0 8 -4 14 -8 14 -11 0 -66 -59 -80 -85 -10 -19 -11 -19 -18 -1 -4
10 -2 27 4 37 7 10 12 32 12 47 0 26 27 72 75 125 21 24 50 8 64 -35z m15430
15 c1 10 6 15 11 12 8 -5 7 -11 -1 -21 -14 -17 -29 -9 -28 14 0 14 2 13 9 -3
8 -18 9 -18 9 -2z m-2000 -22 c11 -7 7 -18 -19 -55 -133 -194 -145 -409 -32
-582 40 -60 148 -171 190 -193 12 -7 20 -16 17 -22 -4 -5 -11 -6 -17 -3 -7 5
-8 2 -2 -7 41 -67 -60 -12 -168 90 -95 90 -128 146 -157 269 -35 142 -35 177
-3 272 33 97 85 180 133 216 37 27 38 27 58 15z m2001 -71 c0 -5 -4 -10 -10
-10 -5 0 -10 5 -10 10 0 6 5 10 10 10 6 0 10 -4 10 -10z m-17102 -232 c-20
-24 -48 -65 -63 -91 -15 -27 -38 -53 -51 -57 -13 -5 -46 -34 -74 -64 -36 -37
-58 -53 -75 -52 l-23 1 19 48 c32 80 60 129 103 182 49 59 119 163 122 179 1
6 10 29 19 51 l18 40 20 -97 19 -97 -34 -43z m7426 206 c5 -14 4 -15 -9 -4
-17 14 -19 20 -6 20 5 0 12 -7 15 -16z m9666 -79 c-7 -9 -15 -13 -19 -10 -3 3
1 10 9 15 21 14 24 12 10 -5z m40 -19 c0 -8 -6 -16 -14 -19 -10 -4 -12 0 -9
14 6 22 23 26 23 5z m-1802 -116 c35 -33 69 -60 77 -60 15 0 30 -34 21 -49 -3
-5 -31 -21 -62 -37 -89 -45 -94 -48 -94 -59 0 -13 -59 -60 -87 -69 -16 -5 -28
-1 -44 15 -18 18 -21 30 -17 74 4 43 12 64 45 107 22 29 51 72 64 95 13 24 26
43 29 43 3 0 34 -27 68 -60z m1188 -53 c46 -75 55 -153 30 -239 -27 -94 -66
-127 -111 -94 -15 11 -17 18 -9 37 9 19 6 27 -18 49 -15 15 -28 34 -28 42 0
18 -20 38 -37 38 -8 0 -28 10 -46 22 -18 13 -33 24 -35 24 -2 1 0 13 3 27 16
62 161 185 197 166 9 -5 34 -37 54 -72z m646 56 c-6 -2 -10 -9 -6 -14 3 -5 -2
-9 -12 -9 -13 0 -14 3 -4 15 7 8 18 15 24 14 7 0 6 -2 -2 -6z m-9482 -84 c0
-6 -4 -7 -10 -4 -5 3 -10 11 -10 16 0 6 5 7 10 4 6 -3 10 -11 10 -16z m9423
-29 c-5 -19 -23 -29 -23 -12 0 7 20 32 26 32 1 0 0 -9 -3 -20z m-12517 -135
c23 -35 13 -54 -14 -27 -23 23 -30 52 -12 52 5 0 17 -11 26 -25z m2091 -221
c-3 -3 -12 -4 -19 -1 -8 3 -5 6 6 6 11 1 17 -2 13 -5z m43 -14 c8 -5 11 -10 5
-10 -5 0 -17 5 -25 10 -8 5 -10 10 -5 10 6 0 17 -5 25 -10z m9867 -10 c-1 -22
-5 -24 -26 -11 -11 7 -10 11 5 20 11 6 20 11 21 11 1 0 1 -9 0 -20z m33 4 c0
-8 -5 -12 -10 -9 -6 4 -8 11 -5 16 9 14 15 11 15 -7z m-9776 -36 c93 -32 240
-119 351 -205 191 -149 370 -397 455 -633 33 -90 33 -90 21 -90 -4 0 -16 21
-26 48 -28 74 -104 221 -148 287 -182 271 -393 453 -665 576 -94 42 -86 52 12
17z m11518 -132 c82 -36 125 -78 143 -139 10 -34 12 -54 5 -61 -5 -5 -10 -7
-10 -3 0 4 -12 -4 -27 -18 -32 -29 -43 -31 -43 -10 0 8 -4 15 -10 15 -5 0 -14
17 -20 38 -11 43 -9 43 -126 46 -48 2 -93 9 -112 18 -22 12 -32 13 -35 4 -3
-7 -9 -6 -18 5 -16 19 -99 35 -99 19 0 -5 -5 -10 -10 -10 -17 0 0 73 22 93 27
26 138 44 217 36 36 -4 91 -19 123 -33z m-10199 -15 c16 -23 26 -45 23 -48 -2
-3 -13 8 -23 23 -26 41 -50 63 -59 56 -4 -4 -4 -1 0 5 12 21 30 10 59 -36z
m14662 -91 c21 -9 17 -12 -15 -12 -34 0 -40 2 -40 12 0 12 27 12 55 0z m-4936
-220 c1 -20 -1 -22 -9 -10 -5 8 -9 31 -9 50 1 32 2 33 9 10 4 -14 8 -36 9 -50z
m-14379 -118 c0 -24 -27 -49 -71 -63 -19 -7 -46 -20 -61 -31 -14 -10 -30 -18
-35 -18 -5 0 -28 -9 -52 -20 -99 -48 -111 31 -14 91 53 33 131 57 186 58 39 1
47 -2 47 -17z m70 -8 c0 -2 -7 -4 -15 -4 -8 0 -15 4 -15 10 0 5 7 7 15 4 8 -4
15 -8 15 -10z m113 -29 c24 -17 48 -47 68 -86 46 -93 31 -107 -24 -23 -25 40
-63 85 -84 102 -31 26 -34 31 -18 32 11 0 37 -11 58 -25z m16587 -163 c102
-30 166 -90 176 -165 6 -44 6 -45 -25 -52 -17 -3 -35 -14 -40 -22 -10 -19 -32
-8 -25 12 4 10 0 13 -15 10 -12 -2 -21 0 -21 6 0 5 -7 9 -15 9 -8 0 -15 6 -15
14 0 8 -14 18 -32 22 -18 3 -37 12 -43 19 -14 18 -145 29 -145 12 0 -9 -2 -9
-9 1 -6 10 -10 10 -21 -3 -13 -16 -35 -21 -26 -6 3 4 -6 6 -19 3 -30 -5 -75
33 -75 64 0 42 78 86 170 95 74 7 103 4 180 -19z m-3451 -138 c134 -40 287
-118 306 -154 29 -55 -8 -67 -76 -24 -92 58 -220 104 -386 139 -85 18 -101 33
-70 64 17 19 120 7 226 -25z m6238 -8 c52 -35 117 -126 109 -153 -3 -10 -23
-30 -45 -43 -29 -19 -40 -34 -47 -65 -6 -28 -15 -41 -29 -44 -11 -2 -23 -8
-28 -15 -5 -7 -16 0 -35 22 -15 18 -32 32 -38 32 -19 0 -33 24 -37 65 -5 45
-29 66 -72 63 -17 -1 -36 1 -42 5 -6 4 -30 -11 -53 -33 -23 -22 -46 -38 -50
-35 -4 3 -17 25 -29 50 -12 25 -25 45 -29 45 -17 0 -10 36 8 37 10 1 42 19 71
39 63 46 137 65 234 60 57 -2 78 -8 112 -30z m-3187 -290 c12 -20 19 -36 17
-36 -3 0 -22 26 -41 57 -28 45 -36 67 -35 103 l1 45 18 -67 c9 -36 27 -83 40
-102z m3518 79 c19 -42 15 -54 -24 -61 -50 -9 -62 6 -41 51 20 42 49 46 65 10z
m-1505 -47 c-2 -5 7 -8 20 -8 13 0 27 -3 31 -7 12 -12 80 -32 89 -26 6 3 7 1
4 -4 -4 -6 13 -27 37 -47 97 -79 133 -202 100 -342 -4 -15 -13 -21 -30 -21
-20 0 -23 4 -20 23 3 13 0 26 -5 30 -5 3 -7 9 -5 13 3 4 1 13 -4 21 -7 11 -11
11 -23 1 -12 -10 -20 -7 -42 13 -15 14 -35 25 -44 24 -33 -3 -52 2 -46 12 8
13 -8 13 -21 0 -15 -15 -107 23 -155 63 -23 20 -47 33 -55 30 -8 -3 -22 1 -32
10 -9 8 -36 15 -61 15 -24 1 -48 6 -52 13 -6 11 -12 11 -31 0 -16 -8 -32 -9
-48 -3 -14 4 -38 7 -55 7 -16 -1 -36 2 -42 8 -9 6 -18 5 -28 -3 -28 -24 -35 0
-11 43 18 32 39 49 86 73 34 18 76 35 93 38 18 3 68 12 112 19 82 15 246 18
238 5z m-1448 -28 c-3 -5 -12 -10 -18 -10 -7 0 -6 4 3 10 19 12 23 12 15 0z
m-4735 -8 c0 -4 -24 -22 -54 -40 -103 -61 -188 -162 -210 -249 -9 -37 -17 -48
-32 -48 -29 0 -30 42 -2 74 13 14 37 46 52 71 16 25 63 80 105 122 63 64 81
77 109 78 17 0 32 -3 32 -8z m-6890 -175 c0 -5 7 -24 16 -43 12 -25 13 -40 6
-61 l-10 -28 -15 35 c-17 39 -47 177 -46 212 0 20 48 -93 49 -115z m7385 16
c18 -14 17 -14 -15 -8 -42 9 -70 22 -70 35 0 11 57 -7 85 -27z m715 -208 c61
-31 66 -55 12 -55 -43 0 -82 23 -82 49 0 16 8 31 17 31 2 0 26 -11 53 -25z
m-14872 -37 c16 -16 15 -55 0 -64 -32 -20 -214 -39 -237 -24 -8 4 -11 14 -8
22 5 15 94 62 132 71 40 9 101 7 113 -5z m18262 -2 c135 -30 301 -97 380 -154
59 -43 125 -119 158 -179 35 -66 40 -91 28 -150 -6 -36 -13 -43 -47 -57 -21
-9 -39 -21 -39 -27 0 -7 -15 -10 -39 -7 -34 3 -42 0 -50 -19 -6 -13 -15 -23
-20 -23 -5 0 -18 -19 -29 -43 -27 -57 -100 -148 -123 -154 -11 -3 -19 -10 -19
-15 0 -5 -6 -8 -12 -5 -7 2 -29 -1 -48 -8 -85 -29 -254 -39 -340 -19 -36 9
-85 19 -110 24 -25 4 -54 11 -65 14 -11 3 -40 11 -65 17 -147 39 -150 40 -165
69 -8 16 -28 38 -44 49 -17 12 -33 30 -36 41 -7 23 23 57 46 52 18 -3 22 29 5
40 -16 11 22 47 44 41 12 -3 19 1 22 13 1 9 12 18 23 19 11 2 39 7 63 13 23 5
42 7 42 3 0 -12 60 -42 70 -36 6 4 8 11 5 16 -4 5 -1 9 4 9 6 0 11 -5 11 -10
0 -6 10 -21 23 -33 12 -13 22 -27 22 -32 0 -6 10 -11 23 -13 12 -2 22 -7 22
-11 0 -24 122 -30 148 -9 12 10 16 10 19 1 7 -21 22 -14 16 7 -7 25 13 27 21
3 3 -10 17 -19 30 -19 22 -2 24 1 20 26 -4 15 -1 31 5 34 7 5 9 1 5 -8 -3 -9
-1 -16 5 -16 6 0 11 -9 11 -19 0 -11 4 -22 9 -25 4 -3 6 6 3 20 -4 24 -3 25
17 13 11 -8 21 -20 21 -27 0 -7 5 -10 10 -7 6 3 10 15 10 27 0 17 3 18 15 8 8
-7 23 -9 32 -5 10 4 47 8 81 10 53 4 67 1 85 -16 21 -19 21 -19 34 6 8 14 22
25 33 25 11 0 20 5 20 11 0 8 4 8 15 -1 26 -21 50 -8 52 30 2 19 5 52 9 72 13
75 -69 178 -206 258 -116 69 -361 136 -475 131 -60 -3 -185 -30 -233 -51 -49
-22 -191 -116 -241 -161 -93 -82 -121 -111 -127 -134 -3 -13 -12 -29 -20 -36
-8 -6 -14 -28 -14 -49 0 -21 -7 -57 -15 -80 -8 -23 -15 -53 -15 -66 0 -28 -19
-42 -31 -23 -19 30 -7 86 41 203 28 66 58 136 68 155 22 44 164 191 184 191 9
0 21 6 28 14 13 17 170 71 245 85 78 14 273 12 345 -3z m-17072 -4 c19 -12 -9
-32 -103 -74 -94 -42 -185 -71 -185 -58 0 9 30 42 67 73 54 46 186 81 221 59z
m144 -23 c75 -22 139 -74 173 -139 15 -30 15 -32 -1 -28 -10 2 -38 28 -62 58
-36 44 -58 61 -111 83 -61 26 -96 47 -77 47 5 0 40 -9 78 -21z m-1083 -14 c14
-13 41 -37 59 -53 29 -25 35 -39 41 -89 8 -64 5 -86 -10 -77 -5 3 -9 23 -9 44
0 56 -29 109 -63 117 -40 8 -89 83 -55 83 6 0 23 -11 37 -25z m19841 5 c0 -5
-5 -10 -11 -10 -5 0 -7 5 -4 10 3 6 8 10 11 10 2 0 4 -4 4 -10z m-13398 -92
c-7 -7 -12 -8 -12 -2 0 14 12 26 19 19 2 -3 -1 -11 -7 -17z m8628 6 c36 -7 70
-24 70 -36 0 -11 -114 24 -130 40 -13 12 -13 14 5 9 11 -3 36 -9 55 -13z
m-1274 -149 c9 -8 24 -15 34 -15 10 0 21 -4 24 -8 6 -10 78 -8 94 2 31 19 96
-34 78 -63 -4 -5 6 -17 22 -25 33 -17 47 -42 29 -49 -9 -3 -8 -8 2 -18 9 -9
11 -9 7 -1 -4 6 -2 12 4 12 7 0 9 -8 5 -19 -3 -12 0 -21 10 -25 10 -3 15 1 15
12 0 12 3 13 8 5 7 -10 12 -10 28 1 13 10 23 11 31 4 15 -12 42 10 35 30 -2 6
1 12 7 12 6 0 11 11 11 25 0 14 -4 25 -9 25 -16 0 1 40 21 51 31 17 62 3 81
-36 18 -37 15 -55 -7 -55 -19 0 -48 -37 -96 -123 -24 -42 -51 -85 -61 -96 -9
-10 -24 -32 -33 -49 -27 -51 -35 -47 -33 17 1 32 -1 57 -5 54 -14 -8 -8 27 8
53 9 13 14 28 10 32 -4 3 -11 0 -16 -8 -7 -10 -10 -11 -10 -2 0 6 -4 12 -10
12 -5 0 -9 -3 -7 -7 1 -5 -2 -10 -8 -13 -5 -3 -11 5 -13 18 -2 12 1 22 7 22
17 0 13 17 -5 24 -11 4 -15 2 -11 -7 7 -18 -28 -83 -37 -68 -11 17 -24 13 -31
-9 -9 -28 -71 -53 -110 -43 -36 8 -57 5 -67 -10 -5 -8 -9 -6 -13 5 -4 9 -13
14 -21 11 -8 -3 -14 1 -14 8 0 11 -3 11 -10 -1 -8 -11 -9 -8 -4 13 5 22 3 26
-10 21 -11 -4 -19 2 -25 19 -5 14 -16 29 -23 33 -18 11 -119 14 -112 3 3 -5
-2 -9 -10 -9 -9 0 -16 -5 -16 -12 0 -9 -3 -9 -11 -1 -14 14 -2 37 66 128 86
115 108 135 150 135 20 0 43 -7 51 -15z m3318 -32 c-20 -59 -120 -253 -131
-253 -7 0 -16 0 -20 1 -3 0 -10 -6 -14 -14 -5 -9 -18 -13 -34 -9 -15 2 -25 0
-25 -7 0 -7 -10 -10 -25 -7 -14 3 -23 1 -20 -5 4 -5 0 -9 -9 -9 -8 0 -22 -3
-31 -6 -13 -5 -16 -2 -14 17 2 13 -3 34 -9 47 -11 18 -10 22 3 22 8 0 16 -6
16 -12 1 -7 4 0 8 17 4 19 14 31 29 35 13 3 23 8 23 13 -2 22 0 27 15 27 8 0
12 5 9 10 -3 6 -1 10 5 10 7 0 24 12 38 28 15 15 52 38 82 52 30 13 66 32 79
42 29 22 32 22 25 1z m4081 -134 c24 -22 47 -49 50 -60 18 -55 -37 -83 -85
-43 -37 31 -38 31 -107 -4 -26 -14 -83 -5 -83 12 0 28 131 134 168 135 7 1 32
-17 57 -40z m-3600 -19 c3 -5 1 -10 -4 -10 -6 0 -11 5 -11 10 0 6 2 10 4 10 3
0 8 -4 11 -10z m265 -49 c24 -9 24 -10 -7 -10 -28 -1 -33 3 -33 22 0 14 3 18
8 10 4 -7 19 -16 32 -22z m70 19 c0 -5 -4 -10 -10 -10 -5 0 -10 5 -10 10 0 6
5 10 10 10 6 0 10 -4 10 -10z m833 -41 c15 -16 30 -29 33 -29 4 0 16 -10 28
-22 12 -13 35 -35 52 -50 50 -45 91 -94 99 -117 3 -11 14 -21 23 -21 15 0 15
-2 2 -10 -14 -9 -7 -14 13 -11 5 1 8 -9 7 -21 -3 -36 -1 -41 14 -29 11 9 17 9
28 -4 7 -9 18 -22 25 -29 6 -7 14 -34 18 -59 7 -43 5 -47 -13 -47 -25 0 -38
35 -21 56 7 8 8 14 3 12 -14 -4 -54 25 -54 40 0 9 -7 11 -20 7 -14 -4 -20 -2
-20 8 0 15 -55 68 -63 60 -3 -2 -10 4 -16 16 -6 11 -26 27 -44 36 -17 8 -49
31 -70 50 -21 19 -42 33 -46 31 -15 -10 -49 24 -55 54 -3 16 -9 43 -12 60 -3
16 -4 36 -1 44 8 21 58 7 90 -25z m-958 21 c-3 -5 -12 -10 -18 -10 -7 0 -6 4
3 10 19 12 23 12 15 0z m99 -47 c-27 -14 -39 -11 -39 10 0 16 37 26 53 14 9
-7 6 -13 -14 -24z m-1136 -41 c-5 -2 -16 -1 -25 2 -14 6 -14 8 3 21 17 12 20
11 25 -3 4 -9 2 -19 -3 -20z m3380 -8 c20 -8 50 -27 66 -42 35 -33 111 -149
138 -208 23 -54 14 -68 -47 -71 -30 -1 -35 0 -20 7 17 7 17 9 3 9 -10 1 -18 6
-18 12 0 6 -9 8 -20 4 -13 -4 -22 -1 -26 9 -4 11 -16 14 -42 10 -58 -7 -76 -6
-80 6 -2 5 -10 10 -18 10 -9 0 -12 -5 -8 -12 4 -7 3 -8 -4 -4 -7 4 -12 13 -12
21 0 8 -5 17 -12 21 -7 5 -9 2 -4 -7 4 -8 1 -6 -7 4 -8 9 -21 17 -30 17 -8 0
-17 8 -19 17 -2 12 -14 18 -38 19 -40 3 -76 10 -90 19 -5 3 -20 -1 -32 -9 -14
-10 -44 -16 -80 -16 -31 0 -60 -4 -63 -10 -8 -12 -45 -13 -45 -1 0 4 16 29 36
55 38 51 97 84 229 131 83 29 186 33 243 9z m-3398 -14 c0 -5 -9 -10 -19 -10
-11 0 -23 5 -26 10 -4 6 5 10 19 10 14 0 26 -4 26 -10z m300 -40 c-7 -16 -19
-30 -26 -30 -8 0 -24 -17 -37 -37 -27 -44 -83 -175 -93 -215 -8 -35 -24 -37
-24 -3 0 34 -20 32 -21 -2 -1 -16 -3 -37 -4 -48 -8 -61 -7 -93 4 -118 6 -16
11 -40 11 -55 0 -36 31 -119 82 -219 42 -83 45 -112 8 -78 -23 21 -50 28 -50
14 0 -5 5 -9 10 -9 6 0 10 -6 10 -12 -1 -7 -19 7 -41 31 -29 32 -45 63 -60
115 -11 39 -25 88 -31 108 -25 83 14 333 52 333 17 0 46 42 56 81 10 41 50
114 70 129 11 8 29 15 41 15 13 0 28 9 35 20 18 28 23 16 8 -20z m1670 -160
c0 -5 -2 -10 -4 -10 -3 0 -8 5 -11 10 -3 6 -1 10 4 10 6 0 11 -4 11 -10z m60
-102 c0 -7 10 -22 22 -35 15 -17 19 -26 11 -34 -17 -17 -3 -51 18 -46 11 3 20
1 20 -4 2 -11 4 -20 11 -39 34 -92 35 -276 2 -360 -20 -53 -90 -163 -128 -202
-66 -68 -255 -182 -273 -164 -8 8 17 37 27 31 5 -3 6 3 4 12 -3 12 13 33 47
63 147 128 180 165 224 250 19 37 42 137 49 217 6 62 -10 213 -23 223 -12 8
-38 85 -33 98 4 14 22 6 22 -10z m265 2 c3 -5 1 -10 -4 -10 -6 0 -11 5 -11 10
0 6 2 10 4 10 3 0 8 -4 11 -10z m-1906 -89 c13 -18 21 -45 21 -69 0 -23 5 -42
13 -45 9 -3 9 -7 -1 -20 -11 -13 -10 -19 8 -37 21 -21 21 -22 1 -27 -11 -3
-27 -16 -36 -29 -8 -13 -33 -36 -55 -50 -48 -32 -75 -26 -67 14 3 15 13 66 22
114 16 89 49 178 65 178 5 0 18 -13 29 -29z m2004 5 c21 -16 22 -26 2 -26 -8
0 -19 9 -25 20 -12 23 -3 25 23 6z m-303 -6 c0 -5 -5 -10 -11 -10 -5 0 -7 5
-4 10 3 6 8 10 11 10 2 0 4 -4 4 -10z m-444 -224 c13 -34 -39 -73 -118 -90
-26 -6 -78 -69 -78 -95 0 -5 -7 -12 -16 -15 -40 -15 15 70 107 166 48 49 93
64 105 34z m42 -212 c4 -25 -29 -57 -50 -49 -17 7 -14 39 5 63 15 18 41 10 45
-14z m-18646 -775 c82 6 103 5 101 -7 -2 -7 4 -12 12 -12 9 0 12 -6 8 -16 -3
-9 -1 -19 5 -23 8 -5 7 -15 -5 -36 -9 -17 -15 -41 -15 -55 1 -16 -1 -21 -6
-12 -6 9 -12 6 -21 -12 -8 -13 -10 -29 -7 -35 4 -6 2 -11 -3 -11 -18 0 -12
-27 7 -36 9 -4 20 -6 25 -6 4 1 7 -5 7 -13 0 -8 5 -15 10 -15 6 0 10 -4 10
-10 0 -5 -7 -7 -15 -4 -8 4 -15 1 -15 -5 0 -13 37 -34 48 -27 4 2 9 -9 10 -25
2 -21 -2 -29 -13 -29 -9 0 -14 -4 -10 -9 3 -5 1 -12 -5 -16 -6 -4 -8 -11 -5
-16 4 -5 1 -9 -4 -9 -22 0 -40 -12 -86 -56 -12 -11 -26 -19 -32 -17 -5 2 -16
-3 -23 -12 -7 -8 -19 -15 -26 -15 -8 0 -14 -5 -14 -12 0 -15 -49 -58 -66 -58
-7 0 -15 6 -18 13 -3 6 -3 -3 0 -22 5 -25 3 -32 -6 -26 -6 4 -23 2 -36 -5 -19
-10 -21 -17 -13 -32 7 -14 6 -20 -5 -24 -8 -3 -17 -12 -20 -20 -3 -9 -1 -12 4
-9 16 10 11 0 -15 -31 -14 -16 -25 -38 -25 -48 0 -20 0 -20 15 0 14 18 14 18
15 -8 0 -17 -5 -28 -13 -28 -8 0 -14 -7 -14 -15 0 -8 4 -15 9 -15 4 0 8 -5 8
-11 0 -5 -4 -7 -10 -4 -5 3 -10 -1 -10 -9 0 -9 -7 -16 -15 -16 -8 0 -15 -4
-15 -10 0 -5 4 -10 10 -10 14 0 8 -23 -10 -37 -8 -6 -11 -15 -7 -19 4 -5 12
-2 17 6 6 9 10 10 10 3 0 -6 -4 -14 -9 -17 -5 -4 -12 -24 -16 -46 -4 -22 -11
-40 -16 -40 -5 0 -9 -4 -9 -9 0 -5 -16 -25 -36 -45 -19 -19 -33 -40 -30 -45 4
-5 -3 -12 -14 -16 -11 -3 -19 -9 -18 -13 8 -39 -119 -163 -212 -209 -36 -17
-80 -37 -97 -43 -18 -7 -33 -16 -33 -20 0 -4 -19 -10 -42 -14 -23 -4 -48 -12
-55 -18 -24 -20 -263 -54 -263 -37 0 5 -6 9 -14 9 -18 0 -52 50 -34 51 7 0 3
5 -10 11 -13 7 -21 17 -17 26 3 7 5 18 5 23 0 6 6 7 13 3 9 -5 9 -4 1 5 -9 10
-8 20 3 42 8 16 19 31 24 34 5 4 7 11 4 16 -4 5 -1 9 5 9 6 0 15 12 20 26 29
75 250 324 288 324 4 0 16 14 25 30 10 17 25 30 33 30 8 0 14 6 14 13 0 7 10
17 23 22 12 6 21 17 19 25 -2 8 0 12 4 8 4 -4 20 2 35 13 16 11 29 17 29 12 0
-4 10 7 21 25 12 17 25 32 30 32 5 0 9 7 9 16 0 10 6 14 15 10 10 -3 20 5 30
24 9 17 20 30 25 30 6 0 10 6 10 14 0 7 9 16 20 19 11 3 23 13 27 24 4 10 17
26 30 36 13 10 21 23 17 28 -3 5 2 12 11 15 9 4 14 13 11 20 -3 7 -1 16 4 19
6 4 10 15 10 26 0 11 7 19 16 19 8 0 13 4 10 9 -7 10 22 71 33 71 4 0 17 20
29 44 12 24 29 49 37 56 8 7 12 17 9 22 -3 5 1 17 9 26 8 9 18 30 21 47 4 16
12 32 17 36 5 3 12 18 15 34 3 16 27 51 57 80 42 43 57 52 77 47 13 -3 37 -4
52 -3z m3837 -8 c2 -1 -3 -9 -12 -19 -10 -10 -14 -22 -10 -27 5 -4 0 -5 -11
-1 -12 4 -24 0 -33 -11 -14 -17 -14 -17 -9 0 9 29 -8 19 -22 -13 -8 -16 -20
-30 -28 -30 -8 0 -14 -5 -14 -12 0 -6 -3 -9 -6 -5 -3 3 -24 -5 -45 -19 -21
-13 -41 -24 -44 -24 -3 0 -16 -9 -27 -20 -17 -15 -24 -17 -30 -8 -6 10 -8 10
-8 0 0 -7 -4 -11 -9 -8 -5 3 -11 -1 -15 -9 -3 -8 -15 -15 -26 -15 -22 0 -27
-15 -7 -23 12 -5 -17 -11 -40 -8 -7 1 -17 -8 -23 -19 -7 -13 -18 -19 -26 -16
-8 3 -14 -1 -14 -8 0 -8 -12 -19 -27 -25 -16 -6 -43 -20 -61 -31 -18 -11 -37
-18 -42 -15 -5 3 -11 1 -15 -5 -3 -5 -19 -10 -36 -10 -16 0 -28 -5 -27 -11 3
-10 -76 -37 -119 -41 -7 -1 -14 -7 -17 -15 -3 -7 -11 -13 -19 -13 -7 0 -32 -9
-55 -20 -22 -11 -47 -20 -53 -20 -11 0 -104 -30 -149 -47 -8 -4 -18 -7 -22 -7
-3 -1 -10 -4 -14 -8 -4 -5 -17 -8 -29 -8 -12 0 -25 -3 -29 -7 -4 -4 -19 -9
-33 -11 -15 -2 -36 -8 -47 -15 -12 -6 -30 -13 -41 -14 -39 -5 -54 -9 -61 -15
-3 -4 -11 -5 -18 -2 -6 2 -36 -4 -66 -15 -30 -11 -58 -17 -62 -15 -5 3 -8 0
-8 -6 0 -6 -4 -9 -9 -5 -6 3 -29 0 -53 -6 -24 -6 -56 -11 -72 -10 -16 0 -35
-4 -41 -9 -8 -7 -22 -5 -41 5 -16 8 -41 15 -56 15 -33 0 -48 19 -20 27 11 2
22 13 25 23 3 11 18 22 33 26 16 4 40 15 53 26 19 15 26 16 33 6 6 -10 13 -7
28 12 14 19 22 22 31 13 9 -9 16 -7 31 7 11 10 38 22 60 25 22 4 42 13 44 20
3 7 14 11 25 8 10 -3 19 -1 19 3 0 5 14 10 32 11 17 1 34 7 38 13 3 5 19 11
36 13 16 2 36 7 42 11 7 4 20 5 28 2 8 -3 26 1 39 10 13 8 40 16 59 17 20 1
36 5 36 10 0 4 11 7 25 7 14 0 25 5 25 10 0 6 11 10 24 10 13 0 37 7 52 15 16
8 39 15 51 15 12 0 23 5 25 11 2 7 22 13 43 15 22 1 42 4 45 5 3 1 8 1 13 0 4
0 7 7 7 17 0 12 9 18 28 20 15 1 32 9 39 18 6 9 14 11 17 5 4 -5 18 1 33 15
20 18 28 21 34 12 6 -10 12 -8 24 7 9 11 13 13 9 5 -5 -11 -1 -10 13 3 16 14
22 15 25 5 4 -10 9 -9 22 5 10 9 28 17 40 17 12 0 32 9 43 19 12 11 23 18 26
15 2 -3 21 4 42 16 20 11 42 20 48 19 20 -4 67 13 67 23 0 5 8 8 18 7 9 -1 34
5 54 15 21 9 41 16 46 16 5 0 33 13 62 29 46 25 66 29 109 22z m7226 -6532
c130 -36 484 -213 595 -298 19 -15 63 -45 98 -66 35 -22 83 -54 107 -72 24
-18 67 -44 95 -58 27 -14 50 -30 50 -35 0 -6 3 -9 8 -8 11 4 139 -60 147 -72
12 -19 1 -20 -58 -9 -31 5 -85 26 -119 46 -35 19 -72 39 -83 43 -11 4 -114 65
-230 135 -396 240 -519 305 -615 326 -54 11 -101 -1 -210 -56 -92 -47 -164
-103 -250 -198 -98 -107 -144 -171 -186 -257 -39 -81 -50 -134 -35 -172 17
-45 80 -106 175 -170 49 -33 128 -92 175 -129 46 -38 90 -69 97 -69 7 0 30
-15 53 -32 22 -18 65 -50 96 -71 30 -21 53 -42 50 -47 -3 -5 12 -14 32 -20 77
-25 85 -51 14 -46 -43 3 -67 16 -198 105 -81 55 -242 163 -358 240 -115 78
-221 148 -234 157 -30 22 -25 50 33 169 59 121 182 293 277 386 106 105 275
234 354 270 47 22 66 23 120 8z m22192 -102 c4 -8 23 -24 40 -37 18 -13 31
-25 29 -27 -2 -2 -37 11 -77 29 -77 34 -77 35 -7 47 4 0 11 -5 15 -12z
m-17537 -264 c0 -8 -57 27 -71 43 -8 10 4 5 29 -11 23 -15 42 -29 42 -32z m94
-72 c-3 -3 -15 6 -27 18 l-22 24 27 -19 c14 -10 24 -21 22 -23z m-3594 -201
c0 -4 17 -12 39 -18 38 -12 76 -42 52 -42 -16 0 -80 34 -111 59 -24 20 -24 20
-2 14 12 -3 22 -9 22 -13z m-1350 -110 c0 -11 -4 -20 -9 -20 -13 0 -32 26 -24
33 13 14 33 6 33 -13z m228 -608 c6 -18 -15 -14 -22 4 -4 10 -1 14 6 12 6 -2
14 -10 16 -16z m1626 -22 c9 0 16 -5 16 -11 0 -5 4 -8 9 -5 4 3 16 -3 25 -13
11 -13 14 -21 7 -26 -6 -3 -11 -11 -11 -16 0 -6 7 -3 16 5 8 9 20 16 26 16 14
0 68 -33 68 -41 0 -4 3 -14 6 -23 5 -13 0 -15 -27 -10 -19 4 -45 13 -58 22
-23 14 -26 13 -46 -12 -11 -14 -28 -26 -37 -26 -34 0 -140 -41 -210 -81 -116
-66 -123 -70 -126 -59 -2 6 -9 7 -15 3 -6 -4 10 20 35 53 49 63 206 220 248
248 24 16 26 16 42 -4 9 -11 23 -20 32 -20z m-1560 -1 c-6 -11 -24 -2 -24 11
0 5 7 7 15 4 8 -4 12 -10 9 -15z m5975 -265 c191 -223 240 -282 332 -402 52
-68 133 -178 181 -245 48 -67 105 -144 126 -172 21 -27 68 -92 103 -143 35
-51 75 -107 89 -126 89 -118 160 -221 160 -229 0 -6 -2 -8 -4 -6 -18 21 -172
228 -185 249 -9 15 -28 42 -43 61 -15 19 -65 88 -112 154 -47 66 -109 151
-138 189 -29 38 -98 129 -153 202 -101 133 -290 366 -442 543 -46 53 -83 100
-83 106 1 11 29 -19 169 -181z m-4159 125 c0 -16 -18 -10 -40 13 -30 32 -24
42 10 18 17 -12 30 -26 30 -31z m687 -260 c42 -16 186 -172 369 -399 7 -8 33
-37 58 -64 25 -27 46 -54 46 -59 0 -10 -123 118 -226 235 -169 192 -238 263
-258 264 -41 2 -46 4 -46 19 0 18 18 19 57 4z m-487 -571 c0 -5 -8 -8 -18 -8
-10 0 -29 -8 -42 -17 l-25 -17 20 25 c34 42 48 51 57 36 4 -6 8 -15 8 -19z
m-232 -210 c-3 -7 -13 -15 -24 -17 -16 -3 -17 -1 -5 13 16 19 34 21 29 4z
m5275 -520 c6 -20 5 -20 -18 2 -13 12 -26 31 -28 42 -6 20 -5 20 18 -2 13 -12
26 -31 28 -42z"/>
<path d="M1235 26160 c-3 -5 -1 -10 4 -10 6 0 11 5 11 10 0 6 -2 10 -4 10 -3
0 -8 -4 -11 -10z"/>
<path d="M1265 26150 c3 -5 8 -10 11 -10 2 0 4 5 4 10 0 6 -5 10 -11 10 -5 0
-7 -4 -4 -10z"/>
<path d="M19340 24844 c0 -1 6 -7 14 -13 10 -9 15 -8 19 3 4 10 0 14 -14 13
-10 -1 -19 -2 -19 -3z"/>
<path d="M22124 24479 c-3 -5 6 -9 20 -9 31 0 34 6 6 13 -11 3 -23 1 -26 -4z"/>
<path d="M22518 24244 c-5 -4 -8 -16 -8 -28 0 -14 3 -17 11 -9 6 6 9 19 7 28
-1 9 -6 13 -10 9z"/>
<path d="M22473 24005 c-9 -25 4 -29 17 -6 7 15 7 21 0 21 -6 0 -13 -7 -17
-15z"/>
<path d="M22357 23944 c-8 -8 1 -24 14 -24 5 0 9 7 9 15 0 15 -12 20 -23 9z"/>
<path d="M22305 23910 c3 -5 8 -10 11 -10 2 0 4 5 4 10 0 6 -5 10 -11 10 -5 0
-7 -4 -4 -10z"/>
<path d="M3710 23160 c0 -5 5 -10 10 -10 6 0 10 5 10 10 0 6 -4 10 -10 10 -5
0 -10 -4 -10 -10z"/>
<path d="M4888 22943 c7 -3 16 -2 19 1 4 3 -2 6 -13 5 -11 0 -14 -3 -6 -6z"/>
<path d="M28405 22300 c3 -5 8 -10 11 -10 2 0 4 5 4 10 0 6 -5 10 -11 10 -5 0
-7 -4 -4 -10z"/>
<path d="M28185 22240 c-3 -6 1 -7 9 -4 18 7 21 14 7 14 -6 0 -13 -4 -16 -10z"/>
<path d="M27930 22125 c0 -8 2 -15 4 -15 2 0 6 7 10 15 3 8 1 15 -4 15 -6 0
-10 -7 -10 -15z"/>
<path d="M27885 22121 c-6 -11 9 -23 19 -14 9 9 7 23 -3 23 -6 0 -12 -4 -16
-9z"/>
<path d="M27730 22010 c0 -5 5 -10 10 -10 6 0 10 5 10 10 0 6 -4 10 -10 10 -5
0 -10 -4 -10 -10z"/>
<path d="M26336 21185 c-3 -9 0 -15 9 -15 9 0 12 6 9 15 -4 8 -7 15 -9 15 -2
0 -5 -7 -9 -15z"/>
<path d="M26530 21859 c0 -5 5 -7 10 -4 6 3 10 8 10 11 0 2 -4 4 -10 4 -5 0
-10 -5 -10 -11z"/>
<path d="M26316 21665 c-3 -8 -1 -15 4 -15 6 0 10 7 10 15 0 8 -2 15 -4 15 -2
0 -6 -7 -10 -15z"/>
<path d="M24130 21490 c0 -5 5 -10 10 -10 6 0 10 5 10 10 0 6 -4 10 -10 10 -5
0 -10 -4 -10 -10z"/>
<path d="M25990 21310 c0 -5 5 -10 11 -10 5 0 7 5 4 10 -3 6 -8 10 -11 10 -2
0 -4 -4 -4 -10z"/>
<path d="M25599 20407 c12 -15 10 -17 -14 -17 -16 0 -25 -3 -22 -6 3 -4 0 -16
-8 -26 -14 -22 -10 -44 13 -67 13 -13 16 -13 27 2 7 9 17 17 23 17 13 0 32 32
32 52 0 8 -15 25 -32 38 -19 14 -27 16 -19 7z m8 -33 c-3 -3 -12 -4 -19 -1 -8
3 -5 6 6 6 11 1 17 -2 13 -5z"/>
<path d="M25460 20361 c0 -14 5 -19 15 -14 17 6 15 25 -3 31 -7 2 -12 -5 -12
-17z"/>
<path d="M25430 20010 c0 -5 5 -10 10 -10 6 0 10 5 10 10 0 6 -4 10 -10 10 -5
0 -10 -4 -10 -10z"/>
<path d="M25464 19832 c4 -7 1 -15 -8 -18 -17 -6 -22 -44 -7 -44 40 0 54 37
24 61 -12 10 -14 10 -9 1z"/>
<path d="M25470 19672 c0 -5 7 -13 16 -16 10 -4 14 -1 12 6 -5 15 -28 23 -28
10z"/>
<path d="M25750 18775 c0 -8 -4 -15 -10 -15 -12 0 -13 -27 -2 -34 5 -3 14 10
20 29 6 20 6 35 1 35 -5 0 -9 -7 -9 -15z"/>
<path d="M25695 18750 c3 -5 8 -10 11 -10 2 0 4 5 4 10 0 6 -5 10 -11 10 -5 0
-7 -4 -4 -10z"/>
<path d="M25688 18583 c7 -3 16 -2 19 1 4 3 -2 6 -13 5 -11 0 -14 -3 -6 -6z"/>
<path d="M25755 18530 c3 -5 8 -10 11 -10 2 0 4 5 4 10 0 6 -5 10 -11 10 -5 0
-7 -4 -4 -10z"/>
<path d="M6568 19233 c7 -3 16 -2 19 1 4 3 -2 6 -13 5 -11 0 -14 -3 -6 -6z"/>
<path d="M6670 19230 c0 -5 5 -10 10 -10 6 0 10 5 10 10 0 6 -4 10 -10 10 -5
0 -10 -4 -10 -10z"/>
<path d="M4750 18510 c-8 -5 -10 -10 -5 -10 6 0 17 5 25 10 8 5 11 10 5 10 -5
0 -17 -5 -25 -10z"/>
<path d="M1200 16830 c0 -5 5 -10 11 -10 5 0 7 5 4 10 -3 6 -8 10 -11 10 -2 0
-4 -4 -4 -10z"/>
<path d="M10520 16354 c0 -8 5 -12 10 -9 6 4 8 11 5 16 -9 14 -15 11 -15 -7z"/>
<path d="M11807 14989 c7 -7 15 -10 18 -7 3 3 -2 9 -12 12 -14 6 -15 5 -6 -5z"/>
<path d="M30140 17906 c0 -9 7 -12 20 -9 11 3 20 9 20 14 0 5 -9 9 -20 9 -11
0 -20 -6 -20 -14z"/>
<path d="M30106 17884 c-8 -21 -3 -26 17 -18 9 3 13 12 10 20 -7 19 -19 18
-27 -2z"/>
<path d="M30125 17840 c-3 -5 -1 -10 4 -10 6 0 11 5 11 10 0 6 -2 10 -4 10 -3
0 -8 -4 -11 -10z"/>
<path d="M30076 17782 c-3 -5 1 -9 9 -9 8 0 12 4 9 9 -3 4 -7 8 -9 8 -2 0 -6
-4 -9 -8z"/>
<path d="M31206 17715 c-3 -8 -1 -15 4 -15 13 0 22 18 11 24 -5 3 -11 -1 -15
-9z"/>
<path d="M31315 17721 c-3 -5 -1 -12 5 -16 5 -3 10 1 10 9 0 18 -6 21 -15 7z"/>
<path d="M31407 17713 c-12 -11 -8 -23 8 -23 8 0 15 7 15 15 0 16 -12 20 -23
8z"/>
<path d="M31330 17690 c-13 -8 -12 -10 3 -10 9 0 17 5 17 10 0 12 -1 12 -20 0z"/>
<path d="M31115 17670 c4 -6 11 -8 16 -5 14 9 11 15 -7 15 -8 0 -12 -5 -9 -10z"/>
<path d="M31360 17665 c0 -16 27 -32 37 -21 7 7 -16 36 -28 36 -5 0 -9 -7 -9
-15z"/>
<path d="M31492 17660 c0 -14 2 -19 5 -12 2 6 2 18 0 25 -3 6 -5 1 -5 -13z"/>
<path d="M31180 17630 c6 -11 13 -20 15 -20 3 0 5 9 5 20 0 11 -7 20 -15 20
-13 0 -14 -4 -5 -20z"/>
<path d="M31527 17643 c-10 -10 -8 -61 2 -68 6 -3 14 3 20 12 6 10 11 12 11 6
0 -18 20 -16 20 2 0 8 -7 15 -16 15 -8 0 -13 4 -10 9 7 11 -18 33 -27 24z"/>
<path d="M31440 17626 c0 -2 9 -6 20 -9 11 -3 20 -1 20 4 0 5 -9 9 -20 9 -11
0 -20 -2 -20 -4z"/>
<path d="M31777 17599 c7 -7 15 -10 18 -7 3 3 -2 9 -12 12 -14 6 -15 5 -6 -5z"/>
<path d="M31470 17589 c0 -5 5 -7 10 -4 6 3 10 8 10 11 0 2 -4 4 -10 4 -5 0
-10 -5 -10 -11z"/>
<path d="M29945 17560 c-3 -5 -1 -10 4 -10 6 0 11 5 11 10 0 6 -2 10 -4 10 -3
0 -8 -4 -11 -10z"/>
<path d="M31400 17550 c0 -11 4 -20 8 -20 4 0 8 9 9 20 1 11 -2 20 -8 20 -5 0
-9 -9 -9 -20z"/>
<path d="M30995 17550 c-8 -13 8 -18 30 -9 11 4 18 8 15 9 -23 7 -41 7 -45 0z"/>
<path d="M31436 17543 c-6 -14 -5 -15 5 -6 7 7 10 15 7 18 -3 3 -9 -2 -12 -12z"/>
<path d="M31470 17550 c0 -5 11 -10 24 -10 14 0 28 5 31 10 4 6 -7 10 -24 10
-17 0 -31 -4 -31 -10z"/>
<path d="M29960 17520 c0 -5 5 -10 10 -10 6 0 10 5 10 10 0 6 -4 10 -10 10 -5
0 -10 -4 -10 -10z"/>
<path d="M29990 17515 c0 -8 7 -15 16 -15 14 0 14 3 4 15 -7 8 -14 15 -16 15
-2 0 -4 -7 -4 -15z"/>
<path d="M30900 17508 c0 -4 14 -8 30 -8 17 0 30 2 30 4 0 2 -13 6 -30 8 -16
3 -30 1 -30 -4z"/>
<path d="M30020 17481 c0 -6 4 -13 10 -16 6 -3 7 1 4 9 -7 18 -14 21 -14 7z"/>
<path d="M30850 17424 c0 -8 5 -12 10 -9 6 3 10 10 10 16 0 5 -4 9 -10 9 -5 0
-10 -7 -10 -16z"/>
<path d="M30056 17401 c-19 -21 -12 -28 13 -12 7 5 12 14 9 21 -2 7 -10 4 -22
-9z"/>
<path d="M30765 17410 c3 -5 8 -10 11 -10 2 0 4 5 4 10 0 6 -5 10 -11 10 -5 0
-7 -4 -4 -10z"/>
<path d="M30820 17400 c-9 -6 -10 -10 -3 -10 6 0 15 5 18 10 8 12 4 12 -15 0z"/>
<path d="M30250 17390 c0 -5 9 -14 19 -20 31 -16 36 -12 11 10 -26 23 -30 24
-30 10z"/>
<path d="M30235 17349 c-4 -6 1 -16 11 -24 16 -12 20 -11 25 3 9 25 -23 43
-36 21z"/>
<path d="M30805 17350 c4 -6 11 -8 16 -5 14 9 11 15 -7 15 -8 0 -12 -5 -9 -10z"/>
<path d="M30362 17299 c2 -7 10 -15 17 -17 8 -3 12 1 9 9 -2 7 -10 15 -17 17
-8 3 -12 -1 -9 -9z"/>
<path d="M30656 17301 c-5 -7 -3 -18 3 -24 14 -14 20 -6 11 17 -5 15 -9 16
-14 7z"/>
<path d="M30470 17289 c0 -5 5 -7 10 -4 6 3 10 8 10 11 0 2 -4 4 -10 4 -5 0
-10 -5 -10 -11z"/>
<path d="M30430 17272 c0 -5 6 -16 13 -27 10 -13 16 -15 21 -6 4 6 2 18 -4 26
-13 16 -30 20 -30 7z"/>
<path d="M29638 17393 c7 -3 16 -2 19 1 4 3 -2 6 -13 5 -11 0 -14 -3 -6 -6z"/>
<path d="M29686 17373 c-6 -14 -5 -15 5 -6 7 7 10 15 7 18 -3 3 -9 -2 -12 -12z"/>
<path d="M26940 17017 c0 -10 8 -17 18 -17 9 0 13 4 7 8 -5 4 -13 11 -17 16
-5 5 -8 2 -8 -7z"/>
<path d="M5105 16521 c-3 -5 -1 -12 5 -16 5 -3 10 1 10 9 0 18 -6 21 -15 7z"/>
<path d="M21413 16392 c-9 -6 -6 -11 7 -20 15 -9 20 -9 20 -1 0 7 9 4 20 -6
22 -20 81 -32 62 -13 -6 6 -8 17 -5 24 3 8 -1 15 -8 15 -65 7 -86 7 -96 1z"/>
<path d="M20237 16250 c3 -11 9 -23 14 -26 5 -3 9 -12 9 -21 0 -34 43 -104 82
-135 l41 -32 -7 39 c-4 21 -16 50 -27 63 -10 14 -19 31 -19 38 0 8 -6 14 -13
14 -8 0 -19 12 -25 26 -7 14 -17 22 -23 19 -6 -4 -13 2 -16 14 -3 12 -9 21
-13 21 -5 0 -6 -9 -3 -20z"/>
<path d="M20812 16120 c7 -10 14 -18 15 -16 6 6 -9 36 -18 36 -5 0 -4 -9 3
-20z"/>
<path d="M20970 16116 c0 -9 5 -16 10 -16 6 0 10 4 10 9 0 6 -4 13 -10 16 -5
3 -10 -1 -10 -9z"/>
<path d="M21178 16103 c7 -3 16 -2 19 1 4 3 -2 6 -13 5 -11 0 -14 -3 -6 -6z"/>
<path d="M20872 16075 c-11 -12 -10 -15 3 -15 8 0 15 7 15 15 0 18 -2 18 -18
0z"/>
<path d="M21000 16080 c0 -5 5 -10 10 -10 6 0 10 5 10 10 0 6 -4 10 -10 10 -5
0 -10 -4 -10 -10z"/>
<path d="M21040 16070 c0 -5 -8 -10 -17 -11 -15 0 -15 -2 2 -8 12 -5 23 -4 27
3 11 16 10 26 -2 26 -5 0 -10 -4 -10 -10z"/>
<path d="M21110 16069 c0 -5 5 -7 10 -4 6 3 10 8 10 11 0 2 -4 4 -10 4 -5 0
-10 -5 -10 -11z"/>
<path d="M20908 16063 c6 -2 18 -2 25 0 6 3 1 5 -13 5 -14 0 -19 -2 -12 -5z"/>
<path d="M20890 16040 c0 -5 5 -10 10 -10 6 0 10 5 10 10 0 6 -4 10 -10 10 -5
0 -10 -4 -10 -10z"/>
<path d="M20797 15964 c-8 -8 3 -34 15 -34 7 0 6 5 -1 13 -6 8 -8 17 -4 20 3
4 4 7 1 7 -2 0 -7 -3 -11 -6z"/>
<path d="M21530 15960 c0 -5 5 -10 11 -10 5 0 7 5 4 10 -3 6 -8 10 -11 10 -2
0 -4 -4 -4 -10z"/>
<path d="M21460 15915 c0 -8 4 -15 10 -15 5 0 7 7 4 15 -4 8 -8 15 -10 15 -2
0 -4 -7 -4 -15z"/>
<path d="M20810 15750 c0 -5 5 -10 10 -10 6 0 10 5 10 10 0 6 -4 10 -10 10 -5
0 -10 -4 -10 -10z"/>
<path d="M25950 14705 c0 -7 30 -13 34 -7 3 4 -4 9 -15 9 -10 1 -19 0 -19 -2z"/>
<path d="M23760 12775 c0 -8 2 -15 4 -15 2 0 6 7 10 15 3 8 1 15 -4 15 -6 0
-10 -7 -10 -15z"/>
<path d="M24030 12700 c-9 -6 -10 -10 -3 -10 6 0 15 5 18 10 8 12 4 12 -15 0z"/>
<path d="M22990 11930 c13 -24 35 -27 26 -4 -3 9 -6 18 -6 20 0 2 -7 4 -15 4
-13 0 -14 -4 -5 -20z"/>
<path d="M5671 10424 c0 -11 3 -14 6 -6 3 7 2 16 -1 19 -3 4 -6 -2 -5 -13z"/>
<path d="M39910 22230 c-9 -6 -10 -10 -3 -10 6 0 15 5 18 10 8 12 4 12 -15 0z"/>
</g>
</svg>
